<svg width="80" height="80" viewBox="0 0 80 80" fill="none" xmlns="http://www.w3.org/2000/svg">
<g id="icon_&#208;&#158;&#208;&#191;&#209;&#139;&#209;&#130;" clip-path="url(#clip0_58_7834)">
<path id="Vector" fill-rule="evenodd" clip-rule="evenodd" d="M40.9664 3.35437C49.1723 3.68014 58.1639 -0.564842 65.1026 3.71975C72.0434 8.00565 73.0998 17.2685 75.7697 24.8452C78.1907 31.7158 80.4154 38.5592 79.9338 45.809C79.4239 53.4856 77.9414 61.4151 72.9451 67.368C67.8888 73.3925 60.1731 76.509 52.4655 78.5366C44.8815 80.5317 37.0788 80.3459 29.3794 78.8284C21.1041 77.1975 12.0526 75.6719 6.49274 69.4762C0.926094 63.2729 -0.0192517 54.3324 0.000293235 46.0892C0.0180496 38.6003 4.11535 32.1256 6.5981 25.0389C9.40256 17.0339 8.25039 6.34708 15.5334 1.75191C22.8135 -2.84145 32.3026 3.01043 40.9664 3.35437Z" fill="url(#paint0_linear_58_7834)" fill-opacity="0.44"/>
<path id="image 128 (Traced)" fill-rule="evenodd" clip-rule="evenodd" d="M51.6145 22.5417C47.5652 23.1319 43.9404 25.2175 41.3749 28.4332L40.3843 29.675H38.5753C35.1549 29.675 34.6266 29.9457 30.9727 33.5704L28.1898 36.3312L28.9011 37.0521L29.6126 37.7732L30.3962 37.0469C31.3275 36.1841 32.1688 35.7598 33.1863 35.64C33.9135 35.5545 35.3352 35.7833 35.3352 35.9858C35.3352 36.039 35.1405 36.3475 34.9024 36.6716L34.4696 37.2607L35.2454 38.0372L36.0212 38.8137L34.6156 40.2253L33.2101 41.637L35.7479 44.1799C37.1437 45.5785 38.3469 46.7228 38.4219 46.7228C38.4969 46.7228 39.1614 46.1211 39.8987 45.3859L41.2393 44.0491L41.9855 44.7867L42.7318 45.5243L43.3186 45.0925C43.6414 44.8549 43.9488 44.6605 44.0019 44.6605C44.0551 44.6605 44.1743 44.9765 44.2667 45.3625C44.6188 46.831 44.129 48.3543 42.88 49.6761L42.2114 50.3838L42.9341 51.0981L43.6569 51.8126L46.4026 49.0271C50.0388 45.338 50.3069 44.8162 50.3069 41.4279V39.628L51.556 38.6158C56.0608 34.9662 58.2391 29.4612 57.4061 23.832L57.2433 22.7321L56.1445 22.5692C54.8759 22.3811 52.8024 22.3685 51.6145 22.5417ZM55.3427 24.6335C55.5001 24.7911 55.5841 26.9237 55.4385 27.0631C55.2651 27.229 54.2641 26.7096 53.7663 26.1956C53.29 25.7037 52.7636 24.7247 52.8769 24.5411C52.9675 24.3947 55.1874 24.4777 55.3427 24.6335ZM51.0556 25.7243C51.6615 27.2197 52.7576 28.3176 54.2512 28.9251C54.6851 29.1017 55.0602 29.3062 55.0846 29.3798C55.1661 29.6244 54.4176 31.6544 53.8696 32.6754C52.6649 34.9198 51.623 35.9561 46.6702 39.8367L42.9649 42.7399L40.1174 39.8921C38.394 38.1686 37.3127 36.9874 37.3785 36.8998C39.4019 34.2087 43.6522 28.9612 44.3516 28.2907C45.3643 27.3198 46.5149 26.492 47.6529 25.9159C48.5076 25.4833 50.3046 24.8538 50.555 24.8993C50.6537 24.9171 50.879 25.2885 51.0556 25.7243ZM46.1176 29.6583C44.0747 30.5962 43.6172 33.3147 45.2424 34.8579C46.5052 36.0573 48.5019 36.013 49.7208 34.7588C50.7056 33.7455 50.8628 32.0757 50.0907 30.826C49.3097 29.5614 47.492 29.0273 46.1176 29.6583ZM48.2034 31.7611C48.639 32.1707 48.6302 32.878 48.1841 33.3244C47.1911 34.3184 45.7364 32.9338 46.6083 31.8245C46.9769 31.3554 47.7397 31.3252 48.2034 31.7611ZM38.6318 31.8205C38.6318 31.8664 38.2308 32.4177 37.7409 33.0459L36.85 34.1878L35.9966 33.9292C35.5273 33.7869 34.8737 33.6302 34.5444 33.5807L33.9453 33.4908L34.2626 33.1508C34.6733 32.7106 35.6039 32.1657 36.336 31.9367C36.9217 31.7534 38.6318 31.667 38.6318 31.8205ZM38.6704 41.4682L39.7328 42.5378L39.044 43.2168L38.3551 43.896L37.2579 42.8042L36.1609 41.7126L36.8074 41.0556C37.163 40.6942 37.4885 40.3986 37.531 40.3986C37.5733 40.3986 38.086 40.8799 38.6704 41.4682ZM48.2188 42.4519C48.1474 43.6859 47.6163 44.9789 46.8978 45.668L46.495 46.0542L46.4049 45.4534C46.3555 45.123 46.1988 44.4686 46.0567 43.9991L45.7986 43.1456L46.9196 42.2586C47.536 41.7708 48.0948 41.3692 48.1611 41.3663C48.2276 41.3633 48.2534 41.8519 48.2188 42.4519ZM27.8119 44.423L25.4424 46.7977L26.2016 47.5481L26.9609 48.2986L29.3271 45.9302L31.6934 43.5616L30.9374 42.8051L30.1814 42.0484L27.8119 44.423ZM26.7804 51.7798L22.4199 56.1458L23.1456 56.863L23.8712 57.5804L28.2317 53.2142L32.5921 48.8482L31.8665 48.131L31.1408 47.4136L26.7804 51.7798ZM23.1794 49.0599L22.5029 49.7474L23.1794 50.4348C23.5514 50.8128 23.9223 51.1222 24.0035 51.1222C24.0847 51.1222 24.4555 50.8128 24.8276 50.4348L25.5041 49.7474L24.8276 49.0599C24.4555 48.6819 24.0847 48.3725 24.0035 48.3725C23.9223 48.3725 23.5514 48.6819 23.1794 49.0599ZM34.032 50.7081L31.7015 53.0438L32.4508 53.8031L33.2001 54.5625L35.5711 52.1922L37.9421 49.8219L37.2272 49.0972C36.8339 48.6986 36.4784 48.3725 36.4372 48.3725C36.396 48.3725 35.3137 49.4236 34.032 50.7081ZM29.4584 55.2855L28.7418 56.0119L29.4973 56.7585L30.2527 57.5052L30.9396 56.828C31.3175 56.4554 31.6267 56.084 31.6267 56.0028C31.6267 55.8593 30.3813 54.5592 30.2436 54.5592C30.206 54.5592 29.8526 54.886 29.4584 55.2855Z" fill="#FCFAFB"/>
</g>
<defs>
<linearGradient id="paint0_linear_58_7834" x1="1.58809" y1="-2.72728" x2="83.9533" y2="1.4162" gradientUnits="userSpaceOnUse">
<stop stop-color="#F5166B"/>
<stop offset="1" stop-color="#ED6923"/>
</linearGradient>
<clipPath id="clip0_58_7834">
<rect width="80" height="80" fill="white"/>
</clipPath>
</defs>
</svg>
