<svg width="60" height="60" viewBox="0 0 60 60" fill="none" xmlns="http://www.w3.org/2000/svg">
<g filter="url(#filter0_b_62_6237)">
<circle cx="30" cy="30" r="30" fill="#E7E7E7" fill-opacity="0.64"/>
<circle cx="30" cy="30" r="29.5" stroke="url(#paint0_linear_62_6237)"/>
</g>
<g clip-path="url(#clip0_62_6237)">
<path d="M30.1516 30.3629C29.9859 30.3629 29.8269 30.4287 29.7097 30.5459C29.5925 30.6632 29.5266 30.8221 29.5266 30.9879V38.5518C29.5266 38.7176 29.5925 38.8765 29.7097 38.9937C29.8269 39.1109 29.9859 39.1768 30.1516 39.1768H32.5078C32.6736 39.1768 32.8325 39.1109 32.9498 38.9937C33.067 38.8765 33.1328 38.7176 33.1328 38.5518V30.9879C33.1328 30.8221 33.067 30.6632 32.9498 30.5459C32.8325 30.4287 32.6736 30.3629 32.5078 30.3629H30.1516ZM31.8829 37.9268H30.7767V31.6129H31.8829V37.9268ZM25.7766 32.3609C25.6109 32.3609 25.4519 32.4268 25.3347 32.544C25.2175 32.6612 25.1516 32.8202 25.1516 32.9859V38.5518C25.1516 38.7176 25.2175 38.8765 25.3347 38.9937C25.4519 39.1109 25.6109 39.1768 25.7766 39.1768H28.1328C28.2986 39.1768 28.4575 39.1109 28.5748 38.9937C28.692 38.8765 28.7578 38.7176 28.7578 38.5518V32.9859C28.7578 32.8202 28.692 32.6612 28.5748 32.544C28.4575 32.4268 28.2986 32.3609 28.1328 32.3609H25.7766ZM27.5079 37.9268H26.4017V33.6109H27.5079V37.9268ZM37.5078 38.5518V29.1904C37.5078 29.0246 37.442 28.8657 37.3248 28.7484C37.2075 28.6312 37.0486 28.5654 36.8828 28.5654H34.5266C34.3608 28.5654 34.2018 28.6312 34.0846 28.7484C33.9674 28.8657 33.9016 29.0246 33.9016 29.1904V38.5518C33.9016 38.7176 33.9674 38.8765 34.0846 38.9937C34.2018 39.1109 34.3608 39.1768 34.5266 39.1768H36.8828C37.0486 39.1768 37.2075 39.1109 37.3248 38.9937C37.442 38.8765 37.5078 38.7176 37.5078 38.5518ZM36.2578 37.9268H35.1516V29.8154H36.2578V37.9268ZM33.4057 24.6098L35.2884 24.7401C35.3807 24.7465 35.4705 24.7733 35.5512 24.8186C35.6319 24.8639 35.7015 24.9265 35.7551 25.002C35.8086 25.0775 35.8447 25.1639 35.8608 25.2551C35.8768 25.3462 35.8725 25.4398 35.848 25.5291L35.3484 27.3488C35.3121 27.4808 35.2335 27.5973 35.1247 27.6803C35.0159 27.7633 34.8829 27.8084 34.746 27.8085C34.69 27.8085 34.6342 27.8009 34.5802 27.786C34.4203 27.7421 34.2844 27.6366 34.2024 27.4925C34.1204 27.3485 34.099 27.1777 34.1429 27.0179L34.19 26.8463C31.8877 28.3704 29.4166 29.7302 26.8223 30.8983C26.7418 30.9347 26.6545 30.9535 26.5662 30.9536C26.4231 30.9537 26.2844 30.9047 26.1731 30.8149C26.0618 30.725 25.9847 30.5997 25.9547 30.4599C25.9246 30.3201 25.9434 30.1742 26.0079 30.0465C26.0724 29.9189 26.1788 29.8172 26.3092 29.7585C28.8088 28.633 31.1906 27.3262 33.4114 25.8631L33.3195 25.8568C33.237 25.852 33.1563 25.8308 33.082 25.7946C33.0078 25.7583 32.9414 25.7077 32.8869 25.6457C32.8323 25.5837 32.7905 25.5114 32.7641 25.4332C32.7376 25.3549 32.7269 25.2722 32.7326 25.1897C32.7383 25.1073 32.7603 25.0268 32.7973 24.953C32.8343 24.8791 32.8856 24.8133 32.9482 24.7594C33.0108 24.7054 33.0834 24.6645 33.162 24.6388C33.2405 24.6131 33.3233 24.6033 33.4057 24.6098ZM23.0845 18.1595L23.7122 18.4011C23.8134 18.7329 23.9465 19.054 24.1097 19.3601L23.8365 19.9752C23.7852 20.0907 23.7701 20.2189 23.7932 20.3431C23.8163 20.4673 23.8764 20.5815 23.9657 20.6709L25.0321 21.7373C25.1214 21.8266 25.2357 21.8867 25.3599 21.9098C25.484 21.9329 25.6123 21.9178 25.7277 21.8666L26.3432 21.5932C26.6492 21.7563 26.9702 21.8894 27.3019 21.9906L27.5437 22.6187C27.589 22.7365 27.6691 22.8379 27.7732 22.9094C27.8773 22.9809 28.0007 23.0191 28.127 23.0191H29.6352C29.7615 23.0191 29.8848 22.9809 29.9889 22.9094C30.093 22.8379 30.1731 22.7365 30.2184 22.6187L30.4601 21.9909C30.7918 21.8897 31.113 21.7565 31.4191 21.5934L32.0342 21.8666C32.1496 21.9178 32.2779 21.9329 32.4021 21.9099C32.5263 21.8868 32.6405 21.8266 32.7298 21.7373L33.7963 20.6709C33.8856 20.5816 33.9457 20.4673 33.9688 20.3432C33.9918 20.219 33.9767 20.0907 33.9255 19.9753L33.6521 19.3598C33.8153 19.0539 33.9484 18.7329 34.0496 18.4013L34.6777 18.1595C34.7955 18.1142 34.8969 18.0341 34.9684 17.93C35.0399 17.8259 35.0781 17.7026 35.0781 17.5763V16.068C35.0781 15.9417 35.0399 15.8184 34.9684 15.7143C34.8969 15.6102 34.7955 15.5301 34.6777 15.4848L34.0498 15.2431C33.9487 14.9114 33.8155 14.5902 33.6523 14.2841L33.9255 13.669C33.9767 13.5536 33.9918 13.4253 33.9688 13.3011C33.9457 13.1769 33.8856 13.0627 33.7963 12.9734L32.7298 11.9069C32.6405 11.8175 32.5263 11.7574 32.4021 11.7343C32.2779 11.7112 32.1496 11.7264 32.0342 11.7777L31.4188 12.051C31.1128 11.8879 30.7917 11.7548 30.4601 11.6536L30.2184 11.0256C30.173 10.9077 30.0931 10.8063 29.9889 10.7348C29.8848 10.6633 29.7615 10.625 29.6352 10.625H28.127C28.0007 10.625 27.8773 10.6633 27.7732 10.7348C27.6691 10.8062 27.589 10.9076 27.5437 11.0255L27.3019 11.6535C26.9702 11.7547 26.6492 11.8878 26.3432 12.0509L25.7277 11.7776C25.6123 11.7263 25.4841 11.7112 25.3599 11.7343C25.2357 11.7573 25.1214 11.8175 25.0321 11.9068L23.9657 12.9733C23.8764 13.0626 23.8163 13.1769 23.7932 13.301C23.7701 13.4252 23.7852 13.5535 23.8365 13.6689L24.1098 14.2843C23.9466 14.5903 23.8135 14.9114 23.7123 15.243L23.0844 15.4848C22.9665 15.5301 22.8651 15.6102 22.7937 15.7143C22.7222 15.8184 22.6839 15.9417 22.6839 16.068V17.5763C22.6839 17.7026 22.7222 17.8259 22.7937 17.93C22.8652 18.0341 22.9666 18.1142 23.0845 18.1595ZM23.9339 16.4972L24.4567 16.2959C24.5515 16.2595 24.6359 16.2005 24.7027 16.124C24.7695 16.0476 24.8167 15.956 24.8402 15.8573C24.9419 15.43 25.1111 15.0217 25.3416 14.6479C25.3949 14.5614 25.4263 14.4633 25.4331 14.362C25.4399 14.2607 25.4219 14.1593 25.3807 14.0665L25.153 13.5538L25.6126 13.0942L26.1252 13.3219C26.218 13.3631 26.3194 13.3811 26.4207 13.3743C26.522 13.3675 26.6201 13.3361 26.7066 13.2829C27.0804 13.0524 27.4887 12.8831 27.916 12.7815C28.0148 12.758 28.1063 12.7108 28.1827 12.644C28.2592 12.5771 28.3181 12.4927 28.3546 12.398L28.5561 11.875H29.206L29.4073 12.3979C29.4437 12.4926 29.5027 12.5771 29.5791 12.6439C29.6556 12.7107 29.7471 12.7579 29.8459 12.7814C30.2731 12.883 30.6814 13.0523 31.0553 13.2828C31.1418 13.3361 31.2399 13.3674 31.3412 13.3742C31.4424 13.381 31.5439 13.363 31.6366 13.3218L32.1493 13.0941L32.6088 13.5537L32.3813 14.0661C32.34 14.1589 32.3221 14.2603 32.3289 14.3616C32.3357 14.4629 32.3671 14.5611 32.4203 14.6475C32.6509 15.0215 32.8202 15.4299 32.922 15.8573C32.9454 15.956 32.9926 16.0476 33.0594 16.124C33.1262 16.2004 33.2107 16.2594 33.3054 16.2959L33.828 16.497V17.147L33.3052 17.3482C33.2104 17.3847 33.126 17.4436 33.0592 17.52C32.9924 17.5964 32.9452 17.688 32.9217 17.7867C32.82 18.214 32.6507 18.6223 32.4202 18.9963C32.3669 19.0827 32.3356 19.1808 32.3288 19.2821C32.322 19.3834 32.34 19.4848 32.3812 19.5776L32.6088 20.0902L32.1493 20.5498L31.6369 20.3222C31.5441 20.281 31.4426 20.263 31.3413 20.2698C31.24 20.2766 31.1419 20.308 31.0555 20.3612C30.6815 20.5918 30.273 20.7611 29.8456 20.8628C29.7469 20.8863 29.6554 20.9335 29.579 21.0004C29.5025 21.0672 29.4436 21.1516 29.4071 21.2463L29.2059 21.769H28.556L28.3548 21.2461C28.3183 21.1514 28.2593 21.067 28.1829 21.0001C28.1065 20.9333 28.015 20.8861 27.9163 20.8626C27.4889 20.7609 27.0806 20.5916 26.7066 20.3611C26.6202 20.3079 26.5221 20.2765 26.4208 20.2697C26.3196 20.2629 26.2182 20.2809 26.1254 20.3221L25.6127 20.5498L25.1532 20.0903L25.3808 19.578C25.422 19.4852 25.44 19.3837 25.4331 19.2824C25.4263 19.1811 25.395 19.083 25.3417 18.9965C25.1112 18.6225 24.9419 18.2141 24.8402 17.7866C24.8167 17.6879 24.7695 17.5963 24.7026 17.5199C24.6358 17.4435 24.5514 17.3845 24.4566 17.348L23.9341 17.1469V16.4972H23.9339ZM28.881 20.0773C30.676 20.0773 32.1363 18.6171 32.1363 16.8221C32.1363 15.0271 30.676 13.5668 28.881 13.5668C27.086 13.5668 25.6258 15.0272 25.6258 16.8222C25.6258 18.6171 27.086 20.0773 28.881 20.0773ZM28.881 14.8169C29.9867 14.8169 30.8863 15.7165 30.8863 16.8222C30.8863 17.9278 29.9867 18.8274 28.881 18.8274C27.7753 18.8274 26.8758 17.9279 26.8758 16.8222C26.8758 15.7164 27.7752 14.8169 28.881 14.8169ZM23.1397 31.8926C23.1397 28.4638 20.3502 25.6743 16.9214 25.6743C13.4927 25.6743 10.7031 28.4638 10.7031 31.8926C10.7031 35.3213 13.4927 38.1109 16.9214 38.1109C20.3502 38.1109 23.1397 35.3213 23.1397 31.8926ZM11.9688 32.2673C12.0268 32.345 12.1021 32.4081 12.1888 32.4515C12.2755 32.495 12.3711 32.5176 12.468 32.5176H12.9509C13.1166 32.5176 13.2756 32.4517 13.3928 32.3345C13.51 32.2173 13.5759 32.0583 13.5759 31.8926C13.5759 31.7268 13.51 31.5678 13.3928 31.4506C13.2756 31.3334 13.1166 31.2676 12.9509 31.2676H12.468C12.3711 31.2676 12.2755 31.2902 12.1888 31.3336C12.1021 31.3771 12.0268 31.4401 11.9688 31.5178C12.0503 30.4305 12.4828 29.4402 13.1537 28.6595C13.1406 28.7549 13.1497 28.8521 13.1803 28.9433C13.211 29.0346 13.2624 29.1175 13.3305 29.1856L13.6719 29.527C13.7298 29.5851 13.7987 29.6312 13.8745 29.6626C13.9504 29.694 14.0317 29.7101 14.1137 29.71C14.1959 29.7101 14.2772 29.694 14.353 29.6626C14.4289 29.6311 14.4977 29.585 14.5557 29.5269C14.6729 29.4097 14.7387 29.2507 14.7387 29.0849C14.7387 28.9192 14.6728 28.7602 14.5556 28.643L14.2142 28.3017C14.1461 28.2337 14.0632 28.1823 13.9719 28.1517C13.8807 28.121 13.7836 28.1119 13.6882 28.125C14.469 27.4541 15.4593 27.0215 16.5466 26.9399C16.469 26.998 16.4059 27.0733 16.3624 27.16C16.319 27.2467 16.2963 27.3423 16.2963 27.4393V27.922C16.2963 28.0878 16.3622 28.2468 16.4794 28.364C16.5966 28.4812 16.7556 28.547 16.9213 28.547C17.0871 28.547 17.2461 28.4812 17.3633 28.364C17.4805 28.2468 17.5463 28.0878 17.5463 27.922V27.4393C17.5463 27.3423 17.5237 27.2467 17.4802 27.16C17.4368 27.0733 17.3737 26.998 17.296 26.9399C18.3834 27.0215 19.3737 27.4541 20.1545 28.1251C20.0591 28.1119 19.962 28.1209 19.8707 28.1516C19.7794 28.1822 19.6965 28.2336 19.6284 28.3016L19.287 28.643C19.1995 28.7304 19.14 28.8417 19.1159 28.963C19.0918 29.0842 19.1041 29.2099 19.1514 29.3241C19.1987 29.4383 19.2788 29.5359 19.3816 29.6046C19.4844 29.6732 19.6052 29.7099 19.7288 29.7099C19.8109 29.71 19.8922 29.6939 19.968 29.6625C20.0439 29.6311 20.1127 29.585 20.1707 29.5269L20.5121 29.1855C20.5802 29.1174 20.6316 29.0345 20.6622 28.9432C20.6929 28.8519 20.702 28.7547 20.6888 28.6593C21.3598 29.4401 21.7924 30.4305 21.8739 31.5178C21.8159 31.4401 21.7405 31.3771 21.6538 31.3336C21.5671 31.2901 21.4715 31.2675 21.3745 31.2675H20.8918C20.726 31.2675 20.5671 31.3333 20.4499 31.4506C20.3326 31.5678 20.2668 31.7267 20.2668 31.8925C20.2668 32.0583 20.3326 32.2172 20.4499 32.3344C20.5671 32.4517 20.726 32.5175 20.8918 32.5175H21.3745C21.4715 32.5175 21.5671 32.4949 21.6538 32.4514C21.7405 32.408 21.8159 32.3449 21.8739 32.2672C21.7923 33.3545 21.3598 34.3449 20.6888 35.1257C20.702 35.0303 20.6929 34.9331 20.6622 34.8418C20.6316 34.7505 20.5802 34.6676 20.5121 34.5995L20.1707 34.2581C20.1129 34.199 20.044 34.152 19.9678 34.1197C19.8917 34.0874 19.81 34.0706 19.7273 34.0701C19.6447 34.0697 19.5627 34.0856 19.4863 34.1171C19.4098 34.1485 19.3403 34.1948 19.2819 34.2532C19.2235 34.3117 19.1772 34.3812 19.1458 34.4576C19.1144 34.5341 19.0984 34.616 19.0989 34.6987C19.0994 34.7813 19.1162 34.8631 19.1485 34.9392C19.1808 35.0153 19.2278 35.0842 19.287 35.142L19.6284 35.4834C19.6863 35.5415 19.7552 35.5876 19.831 35.619C19.9069 35.6504 19.9882 35.6665 20.0702 35.6664C20.0984 35.6664 20.1265 35.6638 20.1545 35.6601C19.3737 36.3311 18.3833 36.7636 17.2959 36.8452C17.3736 36.7871 17.4367 36.7118 17.4802 36.6251C17.5236 36.5384 17.5462 36.4428 17.5463 36.3458V35.863C17.5463 35.6973 17.4804 35.5383 17.3632 35.4211C17.246 35.3039 17.087 35.238 16.9213 35.238C16.7555 35.238 16.5965 35.3039 16.4793 35.4211C16.3621 35.5383 16.2963 35.6973 16.2963 35.863V36.3458C16.2962 36.4428 16.3189 36.5384 16.3623 36.6251C16.4058 36.7118 16.4689 36.7871 16.5466 36.8452C15.4592 36.7636 14.4688 36.3311 13.688 35.6601C13.716 35.6638 13.7441 35.6664 13.7722 35.6664C13.8543 35.6665 13.9356 35.6504 14.0114 35.619C14.0872 35.5876 14.1561 35.5415 14.2141 35.4834L14.5555 35.142C14.6146 35.0842 14.6616 35.0153 14.6939 34.9392C14.7262 34.8631 14.7431 34.7813 14.7435 34.6987C14.744 34.616 14.7281 34.5341 14.6967 34.4576C14.6652 34.3812 14.619 34.3117 14.5605 34.2532C14.5021 34.1948 14.4326 34.1485 14.3562 34.1171C14.2797 34.0856 14.1978 34.0697 14.1151 34.0701C14.0324 34.0706 13.9507 34.0874 13.8746 34.1197C13.7985 34.152 13.7295 34.199 13.6717 34.2581L13.3303 34.5995C13.2622 34.6675 13.2108 34.7505 13.1802 34.8418C13.1495 34.933 13.1404 35.0302 13.1536 35.1255C12.4828 34.3449 12.0503 33.3546 11.9688 32.2673ZM16.2964 31.8926V29.7764C16.2964 29.6106 16.3623 29.4517 16.4795 29.3345C16.5967 29.2173 16.7556 29.1514 16.9214 29.1514C17.0872 29.1514 17.2461 29.2173 17.3633 29.3345C17.4806 29.4517 17.5464 29.6106 17.5464 29.7764V31.5318L18.6468 32.1671C18.766 32.2359 18.8592 32.3422 18.9119 32.4693C18.9645 32.5965 18.9737 32.7375 18.938 32.8705C18.9023 33.0034 18.8238 33.1209 18.7145 33.2046C18.6052 33.2883 18.4713 33.3336 18.3337 33.3334C18.2241 33.3334 18.1166 33.3045 18.0218 33.2496L16.6089 32.4339C16.5139 32.379 16.435 32.3001 16.3801 32.2051C16.3253 32.1101 16.2964 32.0023 16.2964 31.8926ZM36.5945 46.6743C36.6218 46.7517 36.6336 46.8337 36.6292 46.9157C36.6248 46.9977 36.6043 47.078 36.5689 47.152C36.5335 47.2261 36.4838 47.2924 36.4228 47.3473C36.3617 47.4021 36.2905 47.4444 36.213 47.4717C34.3863 48.1164 32.4689 48.4434 30.5145 48.4434C27.5272 48.4434 24.5862 47.6622 22.0096 46.1842C19.5109 44.751 17.3963 42.6934 15.8946 40.2337C15.8083 40.0922 15.7816 39.9222 15.8206 39.7611C15.8596 39.6 15.9609 39.4609 16.1023 39.3745C16.2438 39.2882 16.4138 39.2616 16.5749 39.3005C16.736 39.3395 16.8751 39.4408 16.9615 39.5823C19.8713 44.348 24.9378 47.1933 30.5145 47.1933C32.327 47.1933 34.1043 46.8904 35.7972 46.2929C35.9535 46.2378 36.1253 46.2471 36.2748 46.3186C36.4243 46.3901 36.5392 46.518 36.5945 46.6743ZM36.1651 15.8138C36.2277 15.6604 36.3488 15.5381 36.5016 15.4739C36.6544 15.4096 36.8265 15.4088 36.9799 15.4714C40.0916 16.7416 42.7435 18.8841 44.6489 21.6673C46.6005 24.518 47.6322 27.858 47.6322 31.3258C47.6322 32.9805 47.3963 34.617 46.931 36.1897C46.8928 36.3189 46.8138 36.4324 46.7058 36.513C46.5979 36.5937 46.4667 36.6374 46.332 36.6375C46.2347 36.6375 46.1388 36.6149 46.0518 36.5713C45.9648 36.5277 45.8892 36.4645 45.831 36.3865C45.7728 36.3086 45.7336 36.2182 45.7165 36.1224C45.6994 36.0267 45.7049 35.9283 45.7325 35.835C46.1637 34.3775 46.3822 32.8604 46.3822 31.3257C46.3822 24.8462 42.5062 19.0773 36.5075 16.6286C36.4315 16.5976 36.3624 16.5519 36.304 16.4942C36.2457 16.4365 36.1993 16.3678 36.1675 16.2921C36.1357 16.2165 36.1191 16.1353 36.1187 16.0532C36.1183 15.9712 36.1341 15.8898 36.1651 15.8138ZM15.0895 23.8955C16.2876 21.4125 18.0939 19.2282 20.3131 17.5788C20.4463 17.4823 20.6121 17.4423 20.7746 17.4672C20.9372 17.4922 21.0833 17.5802 21.1814 17.7122C21.2795 17.8441 21.3216 18.0094 21.2987 18.1723C21.2757 18.3351 21.1896 18.4823 21.0588 18.582C19.0009 20.1116 17.326 22.1368 16.2152 24.4387C16.1796 24.5127 16.1297 24.5788 16.0684 24.6335C16.0072 24.6881 15.9358 24.7302 15.8583 24.7572C15.7808 24.7843 15.6987 24.7958 15.6168 24.7911C15.5348 24.7864 15.4546 24.7657 15.3807 24.73C15.3068 24.6943 15.2406 24.6444 15.186 24.5832C15.1313 24.522 15.0893 24.4505 15.0622 24.3731C15.0352 24.2956 15.0237 24.2135 15.0283 24.1316C15.033 24.0496 15.0538 23.9694 15.0895 23.8955ZM43.1653 37.1117C39.7843 37.1117 37.0337 39.8623 37.0337 43.2434C37.0337 46.6244 39.7842 49.375 43.1653 49.375C46.5462 49.375 49.2969 46.6244 49.2969 43.2434C49.2969 39.8623 46.5462 37.1117 43.1653 37.1117ZM43.1653 48.125C40.4736 48.125 38.2837 45.9351 38.2837 43.2434C38.2837 40.5516 40.4736 38.3617 43.1653 38.3617C45.857 38.3617 48.0469 40.5516 48.0469 43.2434C48.0469 45.9351 45.857 48.125 43.1653 48.125ZM45.5426 44.4571C45.6036 44.9597 45.4676 45.4198 45.1494 45.7877C44.8366 46.1493 44.3495 46.4061 43.7903 46.5157V46.728C43.7903 46.8937 43.7245 47.0527 43.6073 47.1699C43.49 47.2871 43.3311 47.353 43.1653 47.353C42.9995 47.353 42.8406 47.2871 42.7234 47.1699C42.6062 47.0527 42.5403 46.8937 42.5403 46.728V46.5052C41.6668 46.3081 40.9994 45.7065 40.7923 44.8759C40.7523 44.715 40.7777 44.5448 40.8631 44.4028C40.9485 44.2607 41.0868 44.1583 41.2476 44.1182C41.4085 44.0781 41.5786 44.1036 41.7207 44.189C41.8628 44.2744 41.9651 44.4127 42.0052 44.5735C42.1478 45.1457 42.7475 45.3355 43.2223 45.3243C43.6347 45.3145 44.0291 45.172 44.204 44.9699C44.2899 44.8706 44.32 44.7588 44.3017 44.6077C44.2807 44.4352 44.2317 44.0312 43.0691 43.8403C41.3855 43.5638 40.992 42.6752 40.9581 41.9784C40.9123 41.0371 41.5455 40.247 42.5402 39.9927V39.7587C42.5402 39.593 42.6061 39.434 42.7233 39.3168C42.8405 39.1996 42.9995 39.1337 43.1652 39.1337C43.331 39.1337 43.49 39.1996 43.6072 39.3168C43.7244 39.434 43.7902 39.593 43.7902 39.7587V39.987C44.434 40.1443 45.0413 40.5631 45.3627 41.3285C45.3944 41.4042 45.411 41.4854 45.4114 41.5675C45.4118 41.6495 45.396 41.7309 45.365 41.8069C45.3339 41.8828 45.2882 41.952 45.2305 42.0103C45.1727 42.0686 45.104 42.115 45.0284 42.1467C44.8755 42.2109 44.7035 42.2117 44.55 42.149C44.3966 42.0863 44.2743 41.9652 44.2102 41.8124C43.9671 41.2335 43.3702 41.0853 42.886 41.1948C42.768 41.2216 42.1806 41.3823 42.2066 41.9177C42.2135 42.0595 42.2318 42.4359 43.2716 42.6067C44.657 42.8342 45.4212 43.4567 45.5426 44.4571Z" fill="url(#paint1_linear_62_6237)" fill-opacity="0.6"/>
</g>
<defs>
<filter id="filter0_b_62_6237" x="-24" y="-24" width="108" height="108" filterUnits="userSpaceOnUse" color-interpolation-filters="sRGB">
<feFlood flood-opacity="0" result="BackgroundImageFix"/>
<feGaussianBlur in="BackgroundImageFix" stdDeviation="12"/>
<feComposite in2="SourceAlpha" operator="in" result="effect1_backgroundBlur_62_6237"/>
<feBlend mode="normal" in="SourceGraphic" in2="effect1_backgroundBlur_62_6237" result="shape"/>
</filter>
<linearGradient id="paint0_linear_62_6237" x1="10.0943" y1="5.84906" x2="30" y2="60" gradientUnits="userSpaceOnUse">
<stop stop-color="#D6E1FF"/>
<stop offset="1" stop-color="white"/>
</linearGradient>
<linearGradient id="paint1_linear_62_6237" x1="11.4693" y1="9.30397" x2="51.2048" y2="11.2949" gradientUnits="userSpaceOnUse">
<stop stop-color="#F5166B"/>
<stop offset="1" stop-color="#ED6923"/>
</linearGradient>
<clipPath id="clip0_62_6237">
<rect width="40" height="40" fill="white" transform="translate(10 10)"/>
</clipPath>
</defs>
</svg>
