<svg width="60" height="61" viewBox="0 0 60 61" fill="none" xmlns="http://www.w3.org/2000/svg">
<g filter="url(#filter0_b_62_6269)">
<circle cx="30" cy="30.5" r="30" fill="#E7E7E7" fill-opacity="0.64"/>
<circle cx="30" cy="30.5" r="29.5" stroke="url(#paint0_linear_62_6269)"/>
</g>
<path d="M38.6623 36.165C36.8111 36.78 34.9223 35.85 34.1748 34.3388C34.0994 34.1904 34.0632 34.0251 34.0696 33.8588C34.076 33.6925 34.1247 33.5305 34.2113 33.3883C34.2978 33.246 34.4192 33.1283 34.5639 33.0461C34.7087 32.964 34.8721 32.9201 35.0386 32.9188H35.2348C35.6136 32.9188 35.9136 33.1775 36.0611 33.5263C36.2986 34.0875 36.8548 34.4825 37.5011 34.4825C37.9014 34.4751 38.2836 34.3144 38.5689 34.0335C38.8542 33.7526 39.021 33.373 39.0348 32.9729C39.0485 32.5727 38.9083 32.1826 38.643 31.8827C38.3776 31.5829 38.0074 31.3963 37.6086 31.3613C36.0761 31.2575 34.6386 30.4138 34.2111 28.9375C34.0538 28.4228 34.0192 27.8784 34.1101 27.3479C34.2009 26.8174 34.4148 26.3155 34.7344 25.8825C35.0541 25.4495 35.4707 25.0973 35.9509 24.8542C36.4311 24.6111 36.9616 24.4838 37.4998 24.4825C38.9736 24.4825 40.2923 25.415 40.8061 26.7188C41.0336 27.295 40.5823 27.92 39.9623 27.9188H39.7661C39.3873 27.9188 39.0886 27.6588 38.9411 27.3113C38.8005 26.9796 38.5497 26.7066 38.231 26.5386C37.9124 26.3705 37.5454 26.3178 37.1923 26.3893C36.8392 26.4608 36.5217 26.652 36.2934 26.9308C36.0652 27.2095 35.9402 27.5585 35.9398 27.9188C35.9398 28.7788 36.6411 29.4825 37.5023 29.4825C38.0433 29.4836 38.5765 29.6119 39.0588 29.8572C39.541 30.1024 39.9588 30.4578 40.2782 30.8944C40.5977 31.3311 40.8099 31.8368 40.8977 32.3707C40.9855 32.9046 40.9464 33.4516 40.7836 33.9675C40.63 34.4756 40.3578 34.9399 39.9894 35.322C39.6209 35.7041 39.1669 35.993 38.6648 36.165H38.6623Z" fill="url(#paint1_linear_62_6269)" fill-opacity="0.6"/>
<path d="M36.5618 25.4188V23.955C36.557 23.8291 36.5777 23.7035 36.6226 23.5858C36.6674 23.4681 36.7355 23.3606 36.8229 23.2697C36.9102 23.1789 37.0149 23.1066 37.1308 23.0572C37.2467 23.0078 37.3714 22.9822 37.4974 22.9821C37.6234 22.9819 37.7481 23.0071 37.8641 23.0562C37.9802 23.1054 38.0851 23.1774 38.1727 23.2679C38.2602 23.3585 38.3286 23.4658 38.3738 23.5835C38.419 23.7011 38.44 23.8266 38.4355 23.9525V25.4163H36.5618V25.4188ZM37.498 37.9188C37.2494 37.9188 37.0109 37.82 36.8351 37.6442C36.6593 37.4684 36.5605 37.2299 36.5605 36.9813V35.4188H38.4355V36.9813C38.4355 37.2299 38.3368 37.4684 38.161 37.6442C37.9851 37.82 37.7467 37.9188 37.498 37.9188Z" fill="url(#paint2_linear_62_6269)" fill-opacity="0.6"/>
<path d="M22.8066 40.5312C23.3244 40.5312 23.7441 40.1115 23.7441 39.5938C23.7441 39.076 23.3244 38.6562 22.8066 38.6562C22.2889 38.6562 21.8691 39.076 21.8691 39.5938C21.8691 40.1115 22.2889 40.5312 22.8066 40.5312Z" fill="url(#paint3_linear_62_6269)" fill-opacity="0.6"/>
<path d="M25.9375 40.5312C26.4553 40.5312 26.875 40.1115 26.875 39.5938C26.875 39.076 26.4553 38.6562 25.9375 38.6562C25.4197 38.6562 25 39.076 25 39.5938C25 40.1115 25.4197 40.5312 25.9375 40.5312Z" fill="url(#paint4_linear_62_6269)" fill-opacity="0.6"/>
<path d="M27.8112 17.05H22.1875C21.6697 17.05 21.25 17.4698 21.25 17.9875C21.25 18.5053 21.6697 18.925 22.1875 18.925H27.8112C28.329 18.925 28.7487 18.5053 28.7487 17.9875C28.7487 17.4698 28.329 17.05 27.8112 17.05Z" fill="url(#paint5_linear_62_6269)" fill-opacity="0.6"/>
<path d="M25.31 20.2664H22.1875C21.6697 20.2664 21.25 20.6861 21.25 21.2039C21.25 21.7216 21.6697 22.1414 22.1875 22.1414H25.31C25.8278 22.1414 26.2475 21.7216 26.2475 21.2039C26.2475 20.6861 25.8278 20.2664 25.31 20.2664Z" fill="url(#paint6_linear_62_6269)" fill-opacity="0.6"/>
<path d="M37.498 41.4375C31.4668 41.4375 26.5605 36.5312 26.5605 30.5C26.5605 24.4688 31.4668 19.5625 37.498 19.5625C43.5293 19.5625 48.4355 24.4688 48.4355 30.5C48.4355 36.5312 43.5293 41.4375 37.498 41.4375ZM37.498 21.4375C32.5005 21.4375 28.4355 25.5025 28.4355 30.5C28.4355 35.4975 32.5005 39.5625 37.498 39.5625C42.4955 39.5625 46.5605 35.4975 46.5605 30.5C46.5605 25.5025 42.4955 21.4375 37.498 21.4375Z" fill="url(#paint7_linear_62_6269)" fill-opacity="0.6"/>
<path d="M38.6618 48.7437C38.328 48.7437 37.993 48.6675 37.6855 48.5137L33.9805 46.6613C33.9311 46.6366 33.8761 46.6254 33.821 46.6289C33.7659 46.6324 33.7127 46.6505 33.6668 46.6813L31.2118 48.3187C30.8524 48.5585 30.4301 48.6864 29.998 48.6864C29.566 48.6864 29.1437 48.5585 28.7843 48.3187L26.3293 46.6813C26.2837 46.6509 26.231 46.6332 26.1763 46.6296C26.1217 46.6261 26.0671 46.637 26.018 46.6613L22.313 48.5137C21.9675 48.6863 21.5825 48.7645 21.197 48.7403C20.8116 48.7162 20.4393 48.5906 20.118 48.3763L17.5343 46.65C17.235 46.45 16.9897 46.1793 16.8201 45.8618C16.6505 45.5443 16.5617 45.1899 16.5618 44.83V20.7125H18.4368V44.83L18.5755 45.09L21.1605 46.8162C21.2064 46.847 21.2596 46.8651 21.3147 46.8686C21.3698 46.8721 21.4249 46.8609 21.4743 46.8363L25.1793 44.9837C25.5242 44.8113 25.9084 44.7331 26.2933 44.7571C26.6781 44.781 27.0497 44.9062 27.3705 45.12L29.8243 46.7562C29.8758 46.7905 29.9362 46.8088 29.998 46.8088C30.0599 46.8088 30.1203 46.7905 30.1718 46.7562L32.6255 45.12C32.9465 44.906 33.3184 44.7806 33.7035 44.7567C34.0885 44.7328 34.473 44.8111 34.818 44.9837L38.5218 46.835C38.5712 46.8597 38.6263 46.8708 38.6814 46.8673C38.7365 46.8638 38.7897 46.8458 38.8355 46.815L41.4205 45.0887L41.5593 44.8288V43.2137C41.5593 42.9651 41.6581 42.7267 41.8339 42.5508C42.0097 42.375 42.2482 42.2762 42.4968 42.2762C42.7454 42.2762 42.9839 42.375 43.1597 42.5508C43.3355 42.7267 43.4343 42.9651 43.4343 43.2137V44.8288C43.4343 45.56 43.0693 46.2425 42.4618 46.6488L39.878 48.375C39.5173 48.6148 39.0937 48.7427 38.6605 48.7425L38.6618 48.7437ZM42.498 18.925C42.2494 18.925 42.0109 18.8262 41.8351 18.6504C41.6593 18.4746 41.5605 18.2361 41.5605 17.9875V16.75C41.5605 16.0041 41.2642 15.2887 40.7368 14.7613C40.2093 14.2338 39.494 13.9375 38.748 13.9375H14.998V12.0625H38.748C39.9912 12.0625 41.1835 12.5564 42.0626 13.4354C42.9417 14.3145 43.4355 15.5068 43.4355 16.75V17.9875C43.4355 18.2361 43.3368 18.4746 43.161 18.6504C42.9851 18.8262 42.7467 18.925 42.498 18.925Z" fill="url(#paint8_linear_62_6269)" fill-opacity="0.6"/>
<path d="M18.4355 31.4375H14.998C14.0866 31.4368 13.2126 31.0745 12.5681 30.4299C11.9236 29.7854 11.5612 28.9115 11.5605 28V15.5C11.5605 13.6037 13.1018 12.0625 14.998 12.0625C16.8943 12.0625 18.4355 13.6037 18.4355 15.5V31.4375ZM14.998 13.9375C14.1368 13.9375 13.4355 14.6388 13.4355 15.5V28C13.4355 28.8612 14.1368 29.5625 14.998 29.5625H16.5605V15.5C16.5605 14.6388 15.8593 13.9375 14.998 13.9375Z" fill="url(#paint9_linear_62_6269)" fill-opacity="0.6"/>
<defs>
<filter id="filter0_b_62_6269" x="-24" y="-23.5" width="108" height="108" filterUnits="userSpaceOnUse" color-interpolation-filters="sRGB">
<feFlood flood-opacity="0" result="BackgroundImageFix"/>
<feGaussianBlur in="BackgroundImageFix" stdDeviation="12"/>
<feComposite in2="SourceAlpha" operator="in" result="effect1_backgroundBlur_62_6269"/>
<feBlend mode="normal" in="SourceGraphic" in2="effect1_backgroundBlur_62_6269" result="shape"/>
</filter>
<linearGradient id="paint0_linear_62_6269" x1="10.0943" y1="6.34906" x2="30" y2="60.5" gradientUnits="userSpaceOnUse">
<stop stop-color="#D6E1FF"/>
<stop offset="1" stop-color="white"/>
</linearGradient>
<linearGradient id="paint1_linear_62_6269" x1="34.1972" y1="24.0777" x2="41.2954" y2="24.2847" gradientUnits="userSpaceOnUse">
<stop stop-color="#F5166B"/>
<stop offset="1" stop-color="#ED6923"/>
</linearGradient>
<linearGradient id="paint2_linear_62_6269" x1="36.5978" y1="22.4728" x2="38.5336" y2="22.4851" gradientUnits="userSpaceOnUse">
<stop stop-color="#F5166B"/>
<stop offset="1" stop-color="#ED6923"/>
</linearGradient>
<linearGradient id="paint3_linear_62_6269" x1="21.9064" y1="38.5923" x2="23.8368" y2="38.6894" gradientUnits="userSpaceOnUse">
<stop stop-color="#F5166B"/>
<stop offset="1" stop-color="#ED6923"/>
</linearGradient>
<linearGradient id="paint4_linear_62_6269" x1="25.0372" y1="38.5923" x2="26.9677" y2="38.6894" gradientUnits="userSpaceOnUse">
<stop stop-color="#F5166B"/>
<stop offset="1" stop-color="#ED6923"/>
</linearGradient>
<linearGradient id="paint5_linear_62_6269" x1="21.3989" y1="16.9861" x2="28.8377" y2="18.4828" gradientUnits="userSpaceOnUse">
<stop stop-color="#F5166B"/>
<stop offset="1" stop-color="#ED6923"/>
</linearGradient>
<linearGradient id="paint6_linear_62_6269" x1="21.3492" y1="20.2024" x2="26.4164" y2="20.8819" gradientUnits="userSpaceOnUse">
<stop stop-color="#F5166B"/>
<stop offset="1" stop-color="#ED6923"/>
</linearGradient>
<linearGradient id="paint7_linear_62_6269" x1="26.9948" y1="18.8168" x2="49.5165" y2="19.9497" gradientUnits="userSpaceOnUse">
<stop stop-color="#F5166B"/>
<stop offset="1" stop-color="#ED6923"/>
</linearGradient>
<linearGradient id="paint8_linear_62_6269" x1="15.5626" y1="10.812" x2="44.8703" y2="11.955" gradientUnits="userSpaceOnUse">
<stop stop-color="#F5166B"/>
<stop offset="1" stop-color="#ED6923"/>
</linearGradient>
<linearGradient id="paint9_linear_62_6269" x1="11.697" y1="11.402" x2="18.7909" y2="11.5286" gradientUnits="userSpaceOnUse">
<stop stop-color="#F5166B"/>
<stop offset="1" stop-color="#ED6923"/>
</linearGradient>
</defs>
</svg>
