<svg width="60" height="60" viewBox="0 0 60 60" fill="none" xmlns="http://www.w3.org/2000/svg">
<g filter="url(#filter0_b_62_6248)">
<circle cx="30" cy="30" r="30" fill="#E7E7E7" fill-opacity="0.64"/>
<circle cx="30" cy="30" r="29.5" stroke="url(#paint0_linear_62_6248)"/>
</g>
<g clip-path="url(#clip0_62_6248)">
<path d="M21.8477 27.2611L21.8463 27.2866C21.7477 29.0128 22.7146 30.6299 24.3103 31.4052L24.3266 31.4132C24.8892 31.6824 25.3501 32.1258 25.6411 32.6775L25.6476 32.6895C26.4516 34.2204 28.1145 35.1484 29.8873 35.0553L29.9142 35.0538C30.5572 35.0178 31.1953 35.1837 31.7392 35.5284C32.475 35.9886 33.3253 36.2326 34.1931 36.2326C35.0608 36.2326 35.9111 35.9886 36.6469 35.5284C37.1908 35.1837 37.829 35.0178 38.4719 35.0538L38.4989 35.0553C40.2687 35.1491 41.9338 34.2203 42.7396 32.6869L42.7436 32.6785C43.0354 32.1255 43.4978 31.6812 44.0621 31.4117L44.0751 31.4052C45.6709 30.6295 46.6381 29.0127 46.5392 27.2863L46.5377 27.2623C46.5049 26.6542 46.6739 26.0524 47.0184 25.5503C48.0108 24.103 48.0108 22.1946 47.0188 20.7471C46.6743 20.2452 46.5051 19.6436 46.5377 19.0358L46.5392 19.0103C46.6381 17.2837 45.6708 15.667 44.0737 14.891L44.0592 14.8838C43.4978 14.6155 43.0375 14.1737 42.7464 13.6238L42.7381 13.6074C41.9338 12.0765 40.2687 11.1489 38.4989 11.2416L38.4716 11.2431C37.8289 11.2791 37.191 11.1132 36.6473 10.7685H36.6465C35.9108 10.3083 35.0605 10.0643 34.1927 10.0643C33.3249 10.0643 32.4746 10.3083 31.7389 10.7685C31.1948 11.1129 30.5567 11.2787 29.9138 11.2427L29.8868 11.2412C28.1167 11.1474 26.452 12.0762 25.6481 13.6066L25.6418 13.618C25.3507 14.1706 24.8893 14.6145 24.3259 14.8841L24.3105 14.8914C22.715 15.6666 21.7478 17.2838 21.8466 19.0103L21.848 19.0343C21.8809 19.6422 21.7119 20.244 21.3673 20.7459C20.375 22.1935 20.375 24.1023 21.3673 25.5495C21.7118 26.0515 21.8807 26.6532 21.8477 27.2611ZM22.5931 21.5918C23.1251 20.8172 23.3859 19.8885 23.335 18.9502L23.3335 18.9247C23.3079 18.3654 23.4488 17.811 23.7384 17.3317C24.0279 16.8524 24.453 16.4697 24.96 16.2321L24.9728 16.2258C25.8232 15.8186 26.5197 15.1481 26.959 14.3139L26.9662 14.3001C27.5004 13.2826 28.6193 12.6659 29.8076 12.7292L29.8338 12.7302C30.7846 12.7838 31.7283 12.5385 32.5327 12.0288C33.0304 11.7174 33.6057 11.5523 34.1927 11.5523C34.7798 11.5523 35.355 11.7174 35.8527 12.0288C36.6572 12.5379 37.6006 12.7833 38.5512 12.7307L38.5774 12.7292C39.7716 12.6666 40.8851 13.2826 41.4178 14.2971L41.4275 14.3157C41.8668 15.1488 42.5626 15.8183 43.4119 16.2251L43.4243 16.2313C44.4774 16.7433 45.1167 17.8004 45.0523 18.9251L45.0508 18.9516C45 19.8898 45.261 20.8183 45.793 21.5927C46.1071 22.0508 46.2751 22.5932 46.275 23.1486C46.2748 23.704 46.1065 24.2464 45.7923 24.7043C45.2606 25.4791 44.9999 26.4079 45.0508 27.3462L45.0523 27.3713C45.1166 28.496 44.4774 29.5534 43.424 30.0658L43.4131 30.0709C42.5617 30.4788 41.8646 31.1503 41.425 31.9858L41.4196 31.9967C40.885 33.0141 39.7679 33.6312 38.5778 33.5675L38.552 33.5662C37.601 33.5131 36.6571 33.7585 35.8524 34.268C35.3547 34.5791 34.7796 34.7441 34.1927 34.7441C33.6058 34.7441 33.0307 34.5791 32.5331 34.268C31.8014 33.8043 30.9528 33.5584 30.0865 33.5592C30.0026 33.5592 29.9182 33.5614 29.8338 33.5662L29.8077 33.5672C29.2333 33.6036 28.6604 33.475 28.1567 33.1964C27.653 32.9178 27.2395 32.5009 26.9651 31.9949L26.9575 31.9806C26.5188 31.1479 25.8235 30.4786 24.9746 30.0719L24.9607 30.065C23.9073 29.553 23.268 28.4955 23.3328 27.3713L23.3342 27.3447C23.3848 26.4066 23.1239 25.4781 22.5921 24.7036C22.2782 24.2455 22.1103 23.7031 22.1105 23.1478C22.1106 22.5925 22.2789 22.0503 22.5931 21.5924V21.5918Z" fill="url(#paint1_linear_62_6248)" fill-opacity="0.6"/>
<path d="M29.3878 30.8473C29.7366 31.0651 30.1959 30.9585 30.4137 30.6098L39.2358 16.4769C39.2876 16.3939 39.3225 16.3015 39.3386 16.205C39.3547 16.1086 39.3516 16.0098 39.3296 15.9146C39.3075 15.8193 39.2669 15.7292 39.2101 15.6496C39.1532 15.57 39.0813 15.5024 38.9983 15.4506C38.9153 15.3988 38.823 15.3639 38.7265 15.3478C38.63 15.3317 38.5313 15.3348 38.436 15.3568C38.3407 15.3789 38.2507 15.4195 38.1711 15.4763C38.0915 15.5332 38.0239 15.6051 37.9721 15.6881L29.1504 29.8211C29.0986 29.904 29.0636 29.9964 29.0475 30.0929C29.0314 30.1894 29.0344 30.2881 29.0564 30.3834C29.0785 30.4787 29.1191 30.5687 29.1759 30.6483C29.2328 30.7279 29.3048 30.7955 29.3878 30.8473H29.3878ZM30.1784 23.1851C31.9918 23.1851 33.4674 21.5026 33.4674 19.4345C33.4674 17.3664 31.9918 15.6846 30.1784 15.6846C28.365 15.6846 26.8897 17.3667 26.8897 19.4347C26.8897 21.5027 28.3649 23.1852 30.1784 23.1852V23.1851ZM30.1784 17.1739C31.1707 17.1739 31.978 18.188 31.978 19.4346C31.978 20.6812 31.1707 21.6957 30.1784 21.6957C29.1863 21.6957 28.3791 20.6808 28.3791 19.4345C28.3791 18.1884 29.1863 17.1739 30.1784 17.1739ZM34.9187 26.8629C34.9187 28.9309 36.3939 30.6131 38.2074 30.6131C40.0209 30.6131 41.4965 28.9306 41.4965 26.8629C41.4965 24.7957 40.0212 23.1128 38.2078 23.1128C36.3939 23.1128 34.9187 24.7945 34.9187 26.8629ZM40.007 26.8629C40.007 28.1094 39.1998 29.1236 38.2074 29.1236C37.2153 29.1236 36.4082 28.1094 36.4082 26.8629C36.4082 25.6165 37.2153 24.6022 38.2074 24.6022C39.1998 24.6022 40.007 25.6155 40.007 26.8629ZM49.9033 39.2294C48.9172 37.4792 46.7302 36.8127 44.9357 37.7152L39.1019 40.4716C38.7061 39.7356 38.1232 39.117 37.4119 38.6782C36.7007 38.2394 35.8864 37.996 35.051 37.9723L29.6656 37.824C28.8127 37.7994 27.9762 37.5833 27.218 37.1919L26.67 36.908C25.2875 36.1874 23.7513 35.812 22.1923 35.8136C20.6333 35.8153 19.0979 36.194 17.7169 36.9174L17.7512 35.676C17.7539 35.5782 17.7373 35.4808 17.7024 35.3894C17.6675 35.2981 17.6149 35.2144 17.5477 35.1434C17.4804 35.0723 17.3999 35.0152 17.3105 34.9753C17.2212 34.9354 17.1249 34.9135 17.0271 34.9108L11.1217 34.7484C11.024 34.7456 10.9267 34.7622 10.8353 34.7972C10.744 34.8321 10.6604 34.8847 10.5894 34.9519C10.5184 35.0191 10.4613 35.0997 10.4214 35.189C10.3815 35.2783 10.3597 35.3746 10.357 35.4723L10.0003 48.4319C9.99757 48.5297 10.0141 48.627 10.0491 48.7184C10.084 48.8098 10.1366 48.8934 10.2038 48.9644C10.271 49.0355 10.3516 49.0926 10.4409 49.1325C10.5302 49.1724 10.6265 49.1943 10.7243 49.197L16.6297 49.3595H16.6504C16.8443 49.3594 17.0305 49.2836 17.1695 49.1484C17.3085 49.0131 17.3894 48.8291 17.3948 48.6352L17.4116 48.0152L18.9457 47.1937C19.5477 46.8697 20.2522 46.7927 20.91 46.9788L30.071 49.55C30.087 49.5548 30.1031 49.5584 30.1194 49.5621C30.7818 49.7006 31.4566 49.7701 32.1333 49.7697C33.566 49.7706 34.982 49.4616 36.2842 48.8639C36.3161 48.8493 36.347 48.8326 36.3765 48.8137L49.6593 40.2214C49.8188 40.1184 49.933 39.9583 49.9783 39.7739C50.0237 39.5895 49.9968 39.3947 49.9033 39.2294ZM11.5098 47.7281L11.8254 36.2581L16.2422 36.3795L15.926 47.8501L11.5098 47.7281ZM35.613 47.5329C33.9951 48.2631 32.1882 48.4646 30.4493 48.1089L21.3126 45.5449C20.2846 45.2542 19.1838 45.3746 18.2429 45.8806L17.4589 46.3002L17.6691 38.6737C20.153 37.0213 23.3392 36.8515 25.985 38.23L26.533 38.514C27.4908 39.0086 28.5475 39.2816 29.6249 39.3127L35.0104 39.461C36.5231 39.5042 37.8078 40.5813 38.1148 42.0635L30.093 41.8428C29.9953 41.8401 29.8979 41.8567 29.8066 41.8916C29.7152 41.9265 29.6317 41.9791 29.5606 42.0463C29.4896 42.1135 29.4326 42.1941 29.3927 42.2834C29.3528 42.3727 29.3309 42.469 29.3283 42.5667C29.3256 42.6645 29.3421 42.7619 29.377 42.8532C29.412 42.9446 29.4645 43.0282 29.5318 43.0993C29.599 43.1703 29.6796 43.2274 29.7689 43.2673C29.8582 43.3072 29.9545 43.3292 30.0522 43.3318L38.9049 43.5755H38.926C39.1199 43.5752 39.306 43.4994 39.4449 43.3642C39.5838 43.229 39.6646 43.0449 39.67 42.8511C39.679 42.5274 39.6549 42.2036 39.598 41.8848L45.5805 39.0577L45.598 39.0493C46.0123 38.8394 46.481 38.7614 46.941 38.8258C47.401 38.8901 47.8302 39.0938 48.1711 39.4093L35.613 47.5329Z" fill="url(#paint2_linear_62_6248)" fill-opacity="0.6"/>
</g>
<defs>
<filter id="filter0_b_62_6248" x="-24" y="-24" width="108" height="108" filterUnits="userSpaceOnUse" color-interpolation-filters="sRGB">
<feFlood flood-opacity="0" result="BackgroundImageFix"/>
<feGaussianBlur in="BackgroundImageFix" stdDeviation="12"/>
<feComposite in2="SourceAlpha" operator="in" result="effect1_backgroundBlur_62_6248"/>
<feBlend mode="normal" in="SourceGraphic" in2="effect1_backgroundBlur_62_6248" result="shape"/>
</filter>
<linearGradient id="paint0_linear_62_6248" x1="10.0943" y1="5.84906" x2="30" y2="60" gradientUnits="userSpaceOnUse">
<stop stop-color="#D6E1FF"/>
<stop offset="1" stop-color="white"/>
</linearGradient>
<linearGradient id="paint1_linear_62_6248" x1="21.1618" y1="9.17223" x2="49.0985" y2="10.6298" gradientUnits="userSpaceOnUse">
<stop stop-color="#F5166B"/>
<stop offset="1" stop-color="#ED6923"/>
</linearGradient>
<linearGradient id="paint2_linear_62_6248" x1="10.794" y1="14.1638" x2="51.9402" y2="16.5684" gradientUnits="userSpaceOnUse">
<stop stop-color="#F5166B"/>
<stop offset="1" stop-color="#ED6923"/>
</linearGradient>
<clipPath id="clip0_62_6248">
<rect width="40" height="40" fill="white" transform="translate(10 10)"/>
</clipPath>
</defs>
</svg>
