<svg width="60" height="60" viewBox="0 0 60 60" fill="none" xmlns="http://www.w3.org/2000/svg">
<g filter="url(#filter0_b_62_6227)">
<circle cx="30" cy="30" r="30" fill="#E7E7E7" fill-opacity="0.64"/>
<circle cx="30" cy="30" r="29.5" stroke="url(#paint0_linear_62_6227)"/>
</g>
<path fill-rule="evenodd" clip-rule="evenodd" d="M17.8148 32.0297C18.0352 32.0297 18.2266 32.182 18.2742 32.3969C18.5711 33.7437 19.1008 35.0172 19.8438 36.182C19.9617 36.368 19.9328 36.6102 19.7797 36.7656L18.6758 37.8688C18.5766 37.9672 18.5227 38.1 18.5227 38.2406C18.5227 38.382 18.5766 38.5141 18.6758 38.6133L21.043 40.9813C21.2469 41.1867 21.582 41.1867 21.7898 40.9813L22.8906 39.8789C22.9797 39.7883 23.1016 39.7414 23.2227 39.7414C23.3086 39.7414 23.3984 39.7656 23.475 39.8148C24.6398 40.557 25.9125 41.0852 27.2617 41.3836C27.4758 41.4312 27.6289 41.6211 27.6289 41.8414V43.4C27.6289 43.6906 27.8648 43.9266 28.1555 43.9266H31.5023C31.7961 43.9266 32.032 43.6906 32.032 43.4V41.8414C32.032 41.6211 32.1852 41.4312 32.3992 41.3836C33.7427 41.0866 35.0234 40.5556 36.1828 39.8148C36.2729 39.7576 36.3798 39.7327 36.4859 39.7444C36.5919 39.756 36.6909 39.8035 36.7664 39.8789L37.8703 40.9813C38.0742 41.1867 38.4094 41.1867 38.6141 40.9813L40.9813 38.6133C41.0836 38.5141 41.1344 38.382 41.1344 38.2406C41.1344 38.1 41.0836 37.9672 40.9813 37.8688L39.8805 36.7656C39.7242 36.6102 39.6984 36.3672 39.8164 36.182C40.5563 35.018 41.0859 33.7445 41.3828 32.3969C41.4305 32.182 41.6219 32.0297 41.8422 32.0297H43.4023C43.6898 32.0297 43.9289 31.793 43.9289 31.5031V28.1531C43.9289 27.8633 43.6898 27.6266 43.4023 27.6266H41.8422C41.6219 27.6266 41.4305 27.4742 41.3828 27.2594C41.0859 25.9125 40.5563 24.6391 39.8164 23.4742C39.7589 23.3842 39.7339 23.2773 39.7456 23.1711C39.7572 23.065 39.8048 22.966 39.8805 22.8906L40.9813 21.7875C41.1883 21.5828 41.1883 21.2484 40.9813 21.043L38.6141 18.675C38.5652 18.6258 38.507 18.5868 38.4429 18.5604C38.3788 18.5339 38.31 18.5206 38.2406 18.5211C38.1 18.5211 37.9695 18.5758 37.8703 18.675L36.7664 19.7773C36.6102 19.9328 36.368 19.9594 36.1828 19.8414C35.018 19.0992 33.7453 18.5711 32.3992 18.2727C32.2951 18.2495 32.2019 18.1915 32.1352 18.1083C32.0684 18.025 32.032 17.9215 32.032 17.8148V16.2562C32.032 15.9656 31.7961 15.7297 31.5023 15.7297H28.1555C27.8648 15.7297 27.6289 15.9656 27.6289 16.2562V17.8148C27.6289 17.922 27.5922 18.026 27.5248 18.1093C27.4574 18.1926 27.3634 18.2503 27.2586 18.2727C25.9152 18.5697 24.6345 19.1007 23.475 19.8414C23.3849 19.8987 23.278 19.9235 23.172 19.9119C23.0659 19.9002 22.9669 19.8528 22.8914 19.7773L21.7906 18.675C21.6883 18.5758 21.5578 18.5211 21.4172 18.5211C21.2766 18.5211 21.143 18.5758 21.0438 18.675L18.6766 21.043C18.6276 21.0918 18.5889 21.15 18.5626 21.2139C18.5363 21.2779 18.523 21.3465 18.5234 21.4156C18.5234 21.5562 18.5773 21.6891 18.6766 21.7875L19.7805 22.8906C19.9336 23.0461 19.9625 23.2891 19.8414 23.4742C19.1016 24.6383 18.5719 25.9125 18.275 27.2594C18.2516 27.3637 18.1934 27.457 18.1099 27.5237C18.0263 27.5905 17.9225 27.6267 17.8156 27.6266H16.2578C15.9672 27.6266 15.7313 27.8633 15.7313 28.1531V31.5031C15.7313 31.793 15.9672 32.0297 16.2578 32.0297H17.8148ZM22.3008 43.6164C22.55 43.543 22.8109 43.6852 22.8844 43.9328C22.9578 44.1813 22.8172 44.4422 22.5688 44.5156L20.5336 45.1172C23.3281 46.8203 26.5352 47.7188 29.8305 47.7188C39.6953 47.7188 47.7195 39.693 47.7195 29.8281C47.7195 25.3883 46.0828 21.1297 43.1063 17.8383C42.9336 17.6461 42.95 17.3492 43.1414 17.1758C43.3328 17.0023 43.6297 17.0172 43.8016 17.2094C46.9344 20.6742 48.6578 25.1555 48.6578 29.8281C48.6578 34.857 46.6992 39.5852 43.1414 43.1414C39.5875 46.6977 34.8586 48.6562 29.8305 48.6562C26.4195 48.6562 23.1016 47.7414 20.1953 46.007L20.7477 47.8688C20.8211 48.1164 20.6773 48.3773 20.4289 48.4508C20.3875 48.4641 20.3398 48.4703 20.2984 48.4703C20.0945 48.4703 19.9094 48.3383 19.8484 48.1344L18.9484 45.0969C18.875 44.8492 19.0188 44.5883 19.2641 44.5148L22.3008 43.6164ZM34.9102 34.7336C35.1688 34.7336 35.3789 34.943 35.3789 35.2023C35.3789 35.4609 35.168 35.6711 34.9102 35.6711H25.0289C24.7703 35.6711 24.5633 35.4609 24.5633 35.2023C24.5633 34.943 24.7703 34.7336 25.0289 34.7336H34.9102ZM31.9617 24.7164V24.7141C30.8578 25.9211 29.7094 26.7703 28.4742 27.2961C27.4977 27.7102 26.4836 27.9156 25.3984 27.9156C25.0445 27.9156 24.6805 27.893 24.307 27.8492C24.0484 27.8195 23.8664 27.5867 23.8953 27.3289C23.9273 27.0719 24.1602 26.8883 24.4156 26.9187C26.9938 27.2219 29.1695 26.3422 31.1984 24.1594C30.9719 24.1469 30.7805 23.9727 30.7578 23.7406C30.7289 23.4828 30.9172 23.2523 31.1758 23.2258L32.2641 23.1125C32.5227 23.0852 32.7523 23.2727 32.7813 23.5297L32.893 24.6195C32.9188 24.8773 32.7336 25.1078 32.475 25.1344C32.4138 25.1407 32.352 25.1349 32.2931 25.1173C32.2342 25.0997 32.1793 25.0707 32.1317 25.0318C32.084 24.993 32.0444 24.9452 32.0153 24.8911C31.9861 24.8369 31.9679 24.7776 31.9617 24.7164ZM32.9148 26.9344H34.8336V33.0836H32.9148V26.9344ZM25.1047 30.4625H27.0234V33.0836H25.1047V30.4625ZM29.0102 28.3672H30.9289V33.0836H29.0102V28.3672ZM16.7047 41.9883C16.8836 42.1781 16.8703 42.4742 16.682 42.6508C16.595 42.7306 16.4814 42.7751 16.3633 42.7758C16.2359 42.7758 16.1109 42.725 16.0188 42.625C12.7836 39.1352 11 34.5906 11 29.8281C11 24.7992 12.9586 20.0711 16.5164 16.5148C20.0703 12.9586 24.7992 11 29.8305 11C33.9367 11 37.9344 12.3484 41.1922 14.8156L40.8414 12.8992C40.7969 12.6445 40.9656 12.4008 41.218 12.3539C41.4734 12.3078 41.7188 12.4766 41.7633 12.7313L42.3344 15.8469C42.3539 15.9688 42.3281 16.0953 42.2578 16.1977C42.1875 16.3 42.0758 16.3695 41.9547 16.3922L38.8406 16.9602C38.8117 16.9656 38.7836 16.968 38.7547 16.968C38.5344 16.968 38.3367 16.8094 38.2953 16.5828C38.284 16.5223 38.2848 16.4602 38.2976 16.4C38.3105 16.3398 38.3351 16.2827 38.3701 16.2321C38.4051 16.1814 38.4498 16.1383 38.5016 16.105C38.5534 16.0717 38.6113 16.0491 38.6719 16.0383L40.7523 15.6586C37.6352 13.2539 33.7875 11.9375 29.8313 11.9375C19.9664 11.9375 11.9391 19.9633 11.9391 29.8281C11.9383 34.3531 13.632 38.6719 16.7047 41.9883ZM29.8305 39.2875C24.6141 39.2875 20.3703 35.0437 20.3703 29.8281C20.3703 24.6125 24.6133 20.3687 29.8305 20.3687C35.0438 20.3687 39.2906 24.6125 39.2906 29.8281C39.2906 35.0437 35.0438 39.2875 29.8305 39.2875Z" fill="url(#paint1_linear_62_6227)" fill-opacity="0.6"/>
<defs>
<filter id="filter0_b_62_6227" x="-24" y="-24" width="108" height="108" filterUnits="userSpaceOnUse" color-interpolation-filters="sRGB">
<feFlood flood-opacity="0" result="BackgroundImageFix"/>
<feGaussianBlur in="BackgroundImageFix" stdDeviation="12"/>
<feComposite in2="SourceAlpha" operator="in" result="effect1_backgroundBlur_62_6227"/>
<feBlend mode="normal" in="SourceGraphic" in2="effect1_backgroundBlur_62_6227" result="shape"/>
</filter>
<linearGradient id="paint0_linear_62_6227" x1="10.0943" y1="5.84906" x2="30" y2="60" gradientUnits="userSpaceOnUse">
<stop stop-color="#D6E1FF"/>
<stop offset="1" stop-color="white"/>
</linearGradient>
<linearGradient id="paint1_linear_62_6227" x1="11.7476" y1="9.71626" x2="50.5187" y2="11.6668" gradientUnits="userSpaceOnUse">
<stop stop-color="#F5166B"/>
<stop offset="1" stop-color="#ED6923"/>
</linearGradient>
</defs>
</svg>
