<svg width="80" height="80" viewBox="0 0 80 80" fill="none" xmlns="http://www.w3.org/2000/svg">
<g id="icon_ &#209;&#134;&#208;&#181;&#208;&#189;&#208;&#176;" clip-path="url(#clip0_58_7864)">
<path id="Vector" fill-rule="evenodd" clip-rule="evenodd" d="M42.8652 0.7785C50.2171 0.170585 58.1707 -1.26865 64.4769 2.53287C70.8205 6.35691 73.3982 13.9885 76.139 20.8365C78.763 27.3925 80.2635 34.1735 79.9617 41.222C79.6344 48.8652 79.1786 57.0541 74.3335 63.002C69.4369 69.0131 61.1745 70.4827 53.894 73.2229C45.9866 76.199 38.2314 81.2432 29.9155 79.7196C21.3577 78.1516 14.4524 71.7948 9.06427 65.0092C3.83185 58.4197 -0.0103011 50.437 2.07472e-05 42.0456C0.00975413 34.1325 4.80113 27.2731 9.11887 20.6222C12.9165 14.7724 17.4182 9.47172 23.4492 5.92538C29.3322 2.46602 36.0517 1.3419 42.8652 0.7785Z" fill="url(#paint0_linear_58_7864)" fill-opacity="0.44"/>
<path id="Vector_2" d="M41.2352 37.9412C40.4117 37.7353 39.5881 37.3235 38.9705 36.7059C38.3528 36.5 38.1469 35.8824 38.1469 35.4706C38.1469 35.0588 38.3528 34.4412 38.7646 34.2353C39.3822 33.8235 39.9999 33.4118 40.6175 33.6177C41.8528 33.6177 42.8822 34.2353 43.4999 35.0588L45.3528 32.5882C44.7352 31.9706 44.1175 31.5588 43.4999 31.1471C42.8822 30.7353 42.0587 30.5294 41.2352 30.5294V27.6471H38.7646V30.5294C37.7352 30.7353 36.7058 31.3529 35.8822 32.1765C35.0587 33.2059 34.4411 34.4412 34.6469 35.6765C34.6469 36.9118 35.0587 38.1471 35.8822 38.9706C36.9116 40 38.3528 40.6177 39.5881 41.2353C40.2058 41.4412 41.0293 41.8529 41.6469 42.2647C42.0587 42.6765 42.2646 43.2941 42.2646 43.9118C42.2646 44.5294 42.0587 45.1471 41.6469 45.7647C41.0293 46.3824 40.2058 46.5882 39.5881 46.5882C38.7646 46.5882 37.7352 46.3824 37.1175 45.7647C36.4999 45.3529 35.8822 44.7353 35.4705 44.1177L33.4117 46.3824C34.0293 47.2059 34.6469 47.8235 35.4705 48.4412C36.4999 49.0588 37.7352 49.6765 38.9705 49.6765V52.3529H41.2352V49.2647C42.4705 49.0588 43.4999 48.4412 44.3234 47.6177C45.3528 46.5882 45.9705 44.9412 45.9705 43.5C45.9705 42.2647 45.5587 40.8235 44.5293 40C43.4999 38.9706 42.4705 38.3529 41.2352 37.9412ZM39.9999 23.5294C30.9411 23.5294 23.5293 30.9412 23.5293 40C23.5293 49.0588 30.9411 56.4706 39.9999 56.4706C49.0587 56.4706 56.4705 49.0588 56.4705 40C56.4705 30.9412 49.0587 23.5294 39.9999 23.5294ZM39.9999 54.2059C32.1764 54.2059 25.794 47.8235 25.794 40C25.794 32.1765 32.1764 25.7941 39.9999 25.7941C47.8234 25.7941 54.2058 32.1765 54.2058 40C54.2058 47.8235 47.8234 54.2059 39.9999 54.2059Z" fill="white"/>
</g>
<defs>
<linearGradient id="paint0_linear_58_7864" x1="1.58809" y1="-2.72728" x2="83.9533" y2="1.4162" gradientUnits="userSpaceOnUse">
<stop stop-color="#F5166B"/>
<stop offset="1" stop-color="#ED6923"/>
</linearGradient>
<clipPath id="clip0_58_7864">
<rect width="80" height="80" fill="white"/>
</clipPath>
</defs>
</svg>
