<svg width="88" height="38" viewBox="0 0 88 38" fill="none" xmlns="http://www.w3.org/2000/svg">
<g id="Logo" clip-path="url(#clip0_89_822)">
<path id="Vector" fill-rule="evenodd" clip-rule="evenodd" d="M19.1793 37.5001C29.9979 21.591 29.3652 7.07355 17.4145 12.8316C18.0028 16.1595 18.5544 19.5034 19.1348 22.7808C19.5191 24.8551 21.0041 22.911 22.4003 21.3971C24.5781 19.0147 25.9612 15.4424 26.1808 16.0507C26.688 17.461 22.4578 26.0211 21.4015 27.2667C19.778 29.179 16.2511 28.677 15.5425 25.1579C14.7321 23.6838 13.8928 17.2033 13.4719 14.8528C13.4484 14.728 13.4222 14.5872 13.3961 14.4412C12.7503 14.7439 12.1385 15.052 11.5712 15.3654C9.71754 16.3933 7.98415 17.4742 6.66124 18.8899C5.61807 21.6467 4.28208 24.9375 3.15002 25.8033C2.07286 26.624 -0.115436 25.6625 0.0100581 23.5511C0.172154 20.8792 1.25454 18.6083 2.86504 16.704C5.23113 10.7627 8.5175 2.87716 10.7607 1.22781C13.0274 -0.442778 15.0014 0.946283 15.5818 3.5199C16.0079 5.40296 16.3922 7.31259 16.7609 9.23815C38.3354 -1.19972 27.9089 26.5523 19.1819 37.5001M12.6928 10.4174C12.4601 9.12395 12.2117 7.78535 11.979 6.64329C11.1607 8.09875 10.2796 10.0137 9.51622 11.764C10.5646 11.2487 11.6339 10.7998 12.6954 10.42L12.6928 10.4174Z" fill="#ED6D00"/>
<g id="Clip path group">
<mask id="mask0_89_822" style="mask-type:luminance" maskUnits="userSpaceOnUse" x="12" y="14" width="3" height="5">
<g id="clippath">
<path id="Vector_2" d="M14.0235 18.1621C13.7829 16.7147 13.5869 15.5035 13.4692 14.8555C13.4457 14.7307 13.4195 14.5926 13.3934 14.4438C12.9176 14.6669 12.4679 14.8953 12.0312 15.1211C12.0652 15.1025 12.0992 15.0839 12.1332 15.0627C12.5358 14.8528 12.9568 14.6457 13.3934 14.4412C13.4195 14.5899 13.4457 14.728 13.4692 14.8528C13.5842 15.5009 13.7829 16.712 14.0235 18.1595" fill="white"/>
</g>
</mask>
<g mask="url(#mask0_89_822)">
<g id="Group">
<path id="Vector_3" d="M14.0209 14.4412H12.0312V18.1595H14.0209V14.4412Z" fill="url(#paint0_linear_89_822)"/>
</g>
</g>
</g>
<g id="Clip path group_2">
<mask id="mask1_89_822" style="mask-type:luminance" maskUnits="userSpaceOnUse" x="12" y="12" width="7" height="9">
<g id="clippath-1">
<path id="Vector_4" d="M14.3927 20.3532C14.262 19.5936 14.1365 18.8499 14.024 18.1594C13.7835 16.7119 13.5874 15.5008 13.4698 14.8527C13.4462 14.7279 13.4201 14.5898 13.394 14.441C12.9573 14.6456 12.5364 14.8527 12.1338 15.0625C13.875 14.0719 15.6581 13.2777 17.415 12.8315C17.6817 14.3428 17.9405 15.8567 18.1993 17.3679C17.096 18.2364 15.7731 19.2722 14.3927 20.3532Z" fill="white"/>
</g>
</mask>
<g mask="url(#mask1_89_822)">
<g id="Group_2">
<path id="Vector_5" d="M18.1993 12.8315H12.1338V20.3532H18.1993V12.8315Z" fill="url(#paint1_linear_89_822)"/>
</g>
</g>
</g>
<g id="Clip path group_3">
<mask id="mask2_89_822" style="mask-type:luminance" maskUnits="userSpaceOnUse" x="3" y="18" width="4" height="8">
<g id="clippath-2">
<path id="Vector_6" d="M3.14551 25.8033C4.27757 24.9375 5.61617 21.6467 6.65672 18.8872C6.70378 18.8367 6.75084 18.7863 6.80052 18.7385C6.81098 18.7305 6.82405 18.7199 6.83451 18.7119C6.77699 18.7703 6.71424 18.8288 6.65672 18.8899C5.61355 21.6494 4.27757 24.9375 3.14551 25.8059V25.8033Z" fill="white"/>
</g>
</mask>
<g mask="url(#mask2_89_822)">
<g id="Group_3">
<path id="Vector_7" d="M6.83451 18.7119H3.14551V25.8033H6.83451V18.7119Z" fill="url(#paint2_linear_89_822)"/>
</g>
</g>
</g>
<g id="Clip path group_4">
<mask id="mask3_89_822" style="mask-type:luminance" maskUnits="userSpaceOnUse" x="0" y="18" width="7" height="9">
<g id="clippath-3">
<path id="Vector_8" d="M1.60826 25.9943C1.05138 25.8164 0.525871 25.3994 0.238281 24.7885C1.82264 23.1339 4.13121 20.8737 6.80318 18.7383C6.75351 18.7887 6.70645 18.8366 6.65939 18.887C5.61622 21.6465 4.28023 24.9346 3.14817 25.8031C2.73247 26.1192 2.15729 26.1696 1.61087 25.9943" fill="white"/>
</g>
</mask>
<g mask="url(#mask3_89_822)">
<g id="Group_4">
<path id="Vector_9" d="M6.80025 18.7383H0.235352V26.1696H6.80025V18.7383Z" fill="url(#paint3_linear_89_822)"/>
</g>
</g>
</g>
<path id="Vector_10" d="M38.2339 9.4055L37.4443 10.4573C37.1097 10.0084 36.6888 9.78265 36.1763 9.78265C35.8051 9.78265 35.5332 9.8756 35.3632 10.0615C35.1933 10.2474 35.107 10.4626 35.107 10.7043C35.107 10.9167 35.1881 11.0947 35.3502 11.2354C35.473 11.3523 35.7842 11.5037 36.2809 11.6843C37.0496 11.9526 37.5724 12.2155 37.8522 12.4758C38.294 12.8768 38.5163 13.4293 38.5163 14.1304C38.5163 14.9033 38.2653 15.5275 37.7659 16.0029C37.2666 16.4783 36.6156 16.7173 35.8181 16.7173C34.7018 16.7173 33.8102 16.2207 33.1436 15.23L34.1318 14.2739C34.3018 14.6271 34.5397 14.8927 34.8403 15.0653C35.1436 15.238 35.4495 15.3256 35.758 15.3256C36.1057 15.3256 36.3933 15.2247 36.6182 15.0255C36.843 14.8236 36.9554 14.5634 36.9554 14.2393C36.9554 13.9631 36.8535 13.7267 36.6522 13.5302C36.4665 13.3576 36.0665 13.1637 35.4547 12.9512C34.8822 12.7547 34.4508 12.5262 34.1632 12.266C33.7527 11.9047 33.5462 11.4161 33.5462 10.7999C33.5462 10.1837 33.7606 9.61532 34.1867 9.16381C34.6129 8.70964 35.2299 8.48389 36.0351 8.48389C36.911 8.48389 37.643 8.79198 38.2339 9.4055Z" fill="#ED6D00"/>
<path id="Vector_11" d="M45.1173 16.5419L44.4323 14.8873H41.3028L40.6178 16.5419H38.9785L42.3407 8.49707H43.4806L46.7487 16.5419H45.1199H45.1173ZM41.7786 13.6363H43.9878L42.895 10.7998L41.7786 13.6363Z" fill="#ED6D00"/>
<path id="Vector_12" d="M52.2603 9.4055L51.4707 10.4573C51.1361 10.0084 50.7151 9.78265 50.2027 9.78265C49.8314 9.78265 49.5595 9.8756 49.3896 10.0615C49.2197 10.2474 49.1334 10.4626 49.1334 10.7043C49.1334 10.9167 49.2144 11.0947 49.3765 11.2354C49.4994 11.3523 49.8105 11.5037 50.3073 11.6843C51.0759 11.9526 51.5988 12.2155 51.8786 12.4758C52.3204 12.8768 52.5426 13.4293 52.5426 14.1304C52.5426 14.9033 52.2916 15.5275 51.7923 16.0029C51.2929 16.4783 50.6419 16.7173 49.8445 16.7173C48.7281 16.7173 47.8366 16.2207 47.1699 15.23L48.1582 14.2739C48.3281 14.6271 48.566 14.8927 48.8667 15.0653C49.17 15.238 49.4759 15.3256 49.7844 15.3256C50.1321 15.3256 50.4197 15.2247 50.6445 15.0255C50.8694 14.8236 50.9818 14.5634 50.9818 14.2393C50.9818 13.9631 50.8824 13.7267 50.6785 13.5302C50.4929 13.3576 50.0929 13.1637 49.4811 12.9512C48.9059 12.7547 48.4772 12.5262 48.1896 12.266C47.7791 11.9047 47.5726 11.4161 47.5726 10.7999C47.5726 10.1837 47.7869 9.61532 48.2131 9.16381C48.6392 8.70964 49.2563 8.48389 50.0615 8.48389C50.9374 8.48389 51.6694 8.79198 52.2603 9.4055Z" fill="#ED6D00"/>
<path id="Vector_13" d="M57.0869 8.70947H59.1105C59.7223 8.70947 60.2582 8.76259 60.7158 8.86883C61.1733 8.97507 61.5995 9.17692 61.9942 9.47704C62.4675 9.83825 62.8335 10.2951 63.0923 10.8475C63.3512 11.3999 63.4819 12.0002 63.4819 12.6562C63.4819 14.0346 62.9616 15.0944 61.9237 15.8354C61.5053 16.1355 61.0792 16.3347 60.6452 16.4383C60.2112 16.5419 59.6909 16.5923 59.087 16.5923H57.0869V8.71213V8.70947ZM58.5981 10.0321V15.267H59.0634C59.853 15.267 60.4857 15.0944 60.9589 14.7464C61.2622 14.526 61.4975 14.2285 61.6674 13.854C61.8374 13.4796 61.9237 13.0812 61.9237 12.6536C61.9237 12.2259 61.84 11.8408 61.6727 11.4663C61.5053 11.0919 61.2727 10.7864 60.9694 10.55C60.5118 10.2048 59.8765 10.0295 59.0634 10.0295H58.5981V10.0321Z" fill="#1A1A18"/>
<path id="Vector_14" d="M64.7813 9.92061C64.6139 9.75063 64.5303 9.54878 64.5303 9.3124C64.5303 9.07602 64.6139 8.87417 64.7813 8.70419C64.9486 8.53421 65.1473 8.44922 65.38 8.44922C65.6127 8.44922 65.8114 8.53421 65.9787 8.70419C66.146 8.87417 66.2297 9.07602 66.2297 9.3124C66.2297 9.54878 66.146 9.75063 65.9787 9.92061C65.8114 10.0906 65.6127 10.1756 65.38 10.1756C65.1473 10.1756 64.9486 10.0906 64.7813 9.92061ZM64.6715 11.4743H66.0911V16.5897H64.6715V11.4743Z" fill="#1A1A18"/>
<path id="Vector_15" d="M71.2752 12.1358V11.4744H72.6949V16.4012C72.6949 16.7013 72.6897 16.9297 72.6766 17.0864C72.6635 17.2431 72.6138 17.4556 72.525 17.7239C72.4361 17.9921 72.3027 18.2312 72.1223 18.4436C71.6021 19.0412 70.9014 19.3413 70.0177 19.3413C69.2961 19.3413 68.6869 19.1475 68.185 18.7623C67.6856 18.3772 67.3928 17.8514 67.3065 17.19H68.8412C68.8961 17.4822 69.0268 17.7079 69.236 17.8699C69.4451 18.032 69.7092 18.1116 70.0282 18.1116C70.2608 18.1116 70.4595 18.0691 70.6269 17.9815C70.7942 17.8938 70.9171 17.7982 70.9981 17.692C71.0792 17.5858 71.1419 17.453 71.1837 17.2963C71.2256 17.1396 71.2517 17.0174 71.2596 16.9351C71.2674 16.8527 71.27 16.7624 71.27 16.6695V15.9019C70.9066 16.4703 70.3889 16.7518 69.7223 16.7518C68.9693 16.7518 68.3575 16.4889 67.8843 15.9603C67.4111 15.4318 67.1758 14.7864 67.1758 14.0215C67.1758 13.2566 67.4032 12.6324 67.8608 12.1012C68.3183 11.57 68.9275 11.3044 69.6857 11.3044C70.3837 11.3044 70.9118 11.5807 71.2674 12.1304L71.2752 12.1358ZM71.0426 12.9989C70.7785 12.7227 70.4465 12.5846 70.0412 12.5846C69.636 12.5846 69.304 12.7227 69.0399 12.9989C68.7758 13.2752 68.6451 13.6178 68.6451 14.0268C68.6451 14.4358 68.7758 14.7811 69.0399 15.06C69.304 15.3388 69.636 15.4796 70.0412 15.4796C70.4465 15.4796 70.7785 15.3388 71.0426 15.06C71.3066 14.7811 71.4373 14.4358 71.4373 14.0268C71.4373 13.6178 71.3066 13.2752 71.0426 12.9989Z" fill="#1A1A18"/>
<path id="Vector_16" d="M74.1543 9.92061C73.987 9.75063 73.9033 9.54878 73.9033 9.3124C73.9033 9.07602 73.987 8.87417 74.1543 8.70419C74.3216 8.53421 74.5203 8.44922 74.753 8.44922C74.9857 8.44922 75.1844 8.53421 75.3517 8.70419C75.519 8.87417 75.6027 9.07602 75.6027 9.3124C75.6027 9.54878 75.519 9.75063 75.3517 9.92061C75.1844 10.0906 74.9857 10.1756 74.753 10.1756C74.5203 10.1756 74.3216 10.0906 74.1543 9.92061ZM74.0445 11.4743H75.4642V16.5897H74.0445V11.4743Z" fill="#1A1A18"/>
<path id="Vector_17" d="M79.2073 12.7041H78.2295V16.5924H76.8098V12.7041H76.2529V11.4744H76.8098V9.72681H78.2295V11.4744H79.2073V12.7041Z" fill="#1A1A18"/>
<path id="Vector_18" d="M83.8147 12.1358V11.4744H85.2344V16.5898H83.8147V15.9284C83.4356 16.4809 82.9206 16.7544 82.267 16.7544C81.5062 16.7544 80.8891 16.4915 80.4107 15.963C79.9349 15.4344 79.6943 14.789 79.6943 14.0241C79.6943 13.2592 79.927 12.6059 80.3924 12.0853C80.8578 11.5647 81.4591 11.3044 82.1938 11.3044C82.9284 11.3044 83.4618 11.5807 83.8095 12.1304L83.8147 12.1358ZM83.5585 12.9989C83.2944 12.7227 82.9624 12.5846 82.5572 12.5846C82.1519 12.5846 81.8199 12.7227 81.5558 12.9989C81.2918 13.2752 81.161 13.6178 81.161 14.0268C81.161 14.4358 81.2918 14.7811 81.5558 15.06C81.8199 15.3388 82.1519 15.4796 82.5572 15.4796C82.9624 15.4796 83.2944 15.3388 83.5585 15.06C83.8226 14.7811 83.9533 14.4358 83.9533 14.0268C83.9533 13.6178 83.8226 13.2752 83.5585 12.9989Z" fill="#1A1A18"/>
<path id="Vector_19" d="M86.5801 7.74268H87.9997V16.5923H86.5801V7.74268Z" fill="#1A1A18"/>
<path id="Vector_20" d="M38.7276 28.2043L38.0426 26.5496H34.9131L34.2281 28.2043H32.5889L35.9511 20.1594H37.091L40.359 28.2043H38.7302H38.7276ZM35.389 25.2987H37.5982L36.5053 22.4621L35.389 25.2987Z" fill="#1A1A18"/>
<path id="Vector_21" d="M44.8924 23.7503V23.0889H46.3121V28.0157C46.3121 28.3158 46.3069 28.5442 46.2938 28.7009C46.2807 28.8576 46.231 29.0701 46.1421 29.3384C46.0533 29.6066 45.9199 29.8457 45.7421 30.0581C45.2219 30.6557 44.5212 30.9558 43.6375 30.9558C42.9159 30.9558 42.3067 30.762 41.8048 30.3768C41.3054 29.9917 41.0126 29.4659 40.9263 28.8045H42.461C42.5159 29.0967 42.6466 29.3224 42.8558 29.4844C43.0649 29.6465 43.329 29.7261 43.6453 29.7261C43.878 29.7261 44.0767 29.6836 44.2441 29.596C44.4114 29.5084 44.5343 29.4127 44.6153 29.3065C44.6964 29.2003 44.7591 29.0675 44.8009 28.9108C44.8428 28.7541 44.8689 28.6319 44.8767 28.5496C44.8846 28.4672 44.8872 28.3769 44.8872 28.284V27.5164C44.5238 28.0848 44.0061 28.3663 43.3395 28.3663C42.5865 28.3663 41.9747 28.1034 41.5015 27.5748C41.0283 27.0463 40.793 26.4009 40.793 25.636C40.793 24.8711 41.0204 24.2469 41.478 23.7157C41.9355 23.1845 42.5447 22.9189 43.3028 22.9189C44.0009 22.9189 44.529 23.1952 44.8846 23.7449L44.8924 23.7503ZM44.6598 24.6134C44.3957 24.3372 44.0637 24.1991 43.6584 24.1991C43.2532 24.1991 42.9211 24.3372 42.6571 24.6134C42.393 24.8897 42.2623 25.2323 42.2623 25.6413C42.2623 26.0503 42.393 26.3956 42.6571 26.6745C42.9211 26.9533 43.2532 27.0941 43.6584 27.0941C44.0637 27.0941 44.3957 26.9533 44.6598 26.6745C44.9238 26.3956 45.0545 26.0503 45.0545 25.6413C45.0545 25.2323 44.9238 24.8897 44.6598 24.6134Z" fill="#1A1A18"/>
<path id="Vector_22" d="M51.3011 26.5627L52.6031 26.7752C52.5482 26.916 52.4776 27.0567 52.3887 27.1948C52.2999 27.3329 52.1613 27.5029 51.9757 27.7021C51.79 27.904 51.5364 28.0633 51.2201 28.1855C50.9011 28.3077 50.5377 28.3688 50.1272 28.3688C49.3351 28.3688 48.6919 28.1297 48.1978 27.649C47.6696 27.1444 47.4082 26.4804 47.4082 25.6517C47.4082 24.8231 47.6644 24.1644 48.1769 23.6438C48.6579 23.1631 49.288 22.9241 50.0723 22.9241C50.9246 22.9241 51.5809 23.2029 52.0384 23.7634C52.441 24.252 52.6423 24.9213 52.6423 25.7712V25.8881H48.8749C48.8749 26.236 48.956 26.5229 49.1181 26.7513C49.3507 27.0753 49.688 27.2347 50.1299 27.2347C50.658 27.2347 51.0475 27.0089 51.3037 26.5601L51.3011 26.5627ZM48.9167 24.9665H51.3011C51.2462 24.6345 51.105 24.3822 50.8776 24.2042C50.6475 24.0263 50.3913 23.9386 50.1037 23.9386C49.8161 23.9386 49.5704 24.0289 49.3429 24.2095C49.1128 24.3902 48.9716 24.6425 48.9194 24.9665H48.9167Z" fill="#1A1A18"/>
<path id="Vector_23" d="M53.7298 28.2041V23.0887H55.1495V23.7501C55.5364 23.1976 56.0567 22.9241 56.7077 22.9241C57.3587 22.9241 57.8633 23.1339 58.1953 23.5509C58.4594 23.8829 58.5901 24.3636 58.5901 24.9931V28.2068H57.1705V25.418C57.1705 24.9373 57.0816 24.6026 56.9038 24.4141C56.7417 24.2414 56.5195 24.1538 56.2397 24.1538C55.8528 24.1538 55.56 24.3025 55.3665 24.6026C55.2201 24.839 55.1443 25.1683 55.1443 25.596V28.2068H53.7246L53.7298 28.2041Z" fill="#1A1A18"/>
<path id="Vector_24" d="M63.733 23.2295V24.6478C63.4141 24.3477 63.0271 24.1989 62.5696 24.1989C62.1121 24.1989 61.7722 24.3397 61.5238 24.6186C61.2755 24.8974 61.1526 25.2401 61.1526 25.6411C61.1526 26.0422 61.2911 26.406 61.5657 26.6796C61.8402 26.9531 62.1905 27.0939 62.6193 27.0939C63.0481 27.0939 63.4088 26.9452 63.7357 26.6451V28.0501C63.3173 28.2625 62.8833 28.3688 62.4337 28.3688C61.6493 28.3688 61.0035 28.1218 60.4911 27.6251C59.9551 27.1125 59.6885 26.4591 59.6885 25.665C59.6885 24.7992 59.9787 24.106 60.5617 23.5854C61.0506 23.1445 61.6545 22.9241 62.3761 22.9241C62.865 22.9241 63.3173 23.0277 63.7383 23.2322L63.733 23.2295Z" fill="#1A1A18"/>
<path id="Vector_25" d="M64.6978 30.9452L66.5462 27.4367L64.1514 23.0889H65.8037L67.3619 25.9945L68.758 23.0889H70.3633L66.3031 30.9452H64.6978Z" fill="#1A1A18"/>
</g>
<defs>
<linearGradient id="paint0_linear_89_822" x1="14.0078" y1="18.0851" x2="11.2953" y2="13.3089" gradientUnits="userSpaceOnUse">
<stop stop-color="white"/>
<stop offset="0.92" stop-color="#0F0E09"/>
<stop offset="1" stop-color="#0F0E09"/>
</linearGradient>
<linearGradient id="paint1_linear_89_822" x1="15.5169" y1="17.2298" x2="12.8044" y2="12.4536" gradientUnits="userSpaceOnUse">
<stop stop-color="#ED6C00"/>
<stop offset="0.92" stop-color="#0F0E09"/>
<stop offset="1" stop-color="#0F0E09"/>
</linearGradient>
<linearGradient id="paint2_linear_89_822" x1="5.39133" y1="22.9853" x2="2.67617" y2="18.2092" gradientUnits="userSpaceOnUse">
<stop stop-color="white"/>
<stop offset="0.92" stop-color="#0F0E09"/>
<stop offset="1" stop-color="#0F0E09"/>
</linearGradient>
<linearGradient id="paint3_linear_89_822" x1="4.1858" y1="23.6704" x2="1.47064" y2="18.8942" gradientUnits="userSpaceOnUse">
<stop stop-color="#ED6C00"/>
<stop offset="0.92" stop-color="#0F0E09"/>
<stop offset="1" stop-color="#0F0E09"/>
</linearGradient>
<clipPath id="clip0_89_822">
<rect width="88" height="37" fill="white" transform="translate(0 0.5)"/>
</clipPath>
</defs>
</svg>
