<svg width="35" height="35" viewBox="0 0 35 35" fill="none" xmlns="http://www.w3.org/2000/svg">
<g id="icon_facebook">
<path id="Vector" opacity="0.992" fill-rule="evenodd" clip-rule="evenodd" d="M7.32154 4C14.1072 4 20.8929 4 27.6785 4C29.4716 4.42188 30.5791 5.5293 31.001 7.32227C31.001 14.1074 31.001 20.8926 31.001 27.6777C30.5791 29.4707 29.4716 30.5781 27.6785 31C25.0944 31 22.5102 31 19.926 31C19.926 27.8008 19.926 24.6016 19.926 21.4023C21.2796 21.4023 22.6332 21.4023 23.9869 21.4023C24.1373 20.3505 24.313 19.3046 24.5142 18.2646C22.9849 18.2383 21.4555 18.2295 19.926 18.2383C19.9172 17.0428 19.926 15.8475 19.9524 14.6523C20.1194 14.0635 20.4973 13.6856 21.0862 13.5186C22.2815 13.4922 23.4769 13.4834 24.6724 13.4922C24.6724 12.4375 24.6724 11.3828 24.6724 10.3281C23.3539 10.3193 22.0354 10.3281 20.7171 10.3545C18.7416 10.4844 17.4671 11.4951 16.8935 13.3867C16.8426 13.6836 16.8074 13.9824 16.7881 14.2832C16.7617 15.6015 16.7529 16.9198 16.7617 18.2383C15.7069 18.2383 14.6522 18.2383 13.5974 18.2383C13.5974 19.293 13.5974 20.3477 13.5974 21.4023C14.6522 21.4023 15.7069 21.4023 16.7617 21.4023C16.7617 24.6016 16.7617 27.8008 16.7617 31C13.615 31 10.4683 31 7.32154 31C5.52844 30.5781 4.42093 29.4707 3.99902 27.6777C3.99902 20.8926 3.99902 14.1074 3.99902 7.32227C4.42093 5.5293 5.52844 4.42188 7.32154 4ZM7.9544 5.58203C14.3182 5.57324 20.682 5.58203 27.0457 5.6084C28.4608 5.75781 29.2431 6.54004 29.3925 7.95508C29.4444 14.4776 29.4268 20.9991 29.3398 27.5195C29.0849 28.4776 28.4784 29.084 27.5203 29.3389C25.5176 29.415 23.5135 29.4413 21.5082 29.418C21.5082 27.2734 21.5082 25.1289 21.5082 22.9844C22.8042 23.0017 24.0963 22.9841 25.3844 22.9316C25.7387 20.8411 26.0815 18.7493 26.4128 16.6562C24.7779 16.6562 23.143 16.6562 21.5082 16.6562C21.5082 16.1289 21.5082 15.6016 21.5082 15.0742C23.0903 15.0742 24.6724 15.0742 26.2546 15.0742C26.2546 12.9648 26.2546 10.8555 26.2546 8.74609C24.1626 8.7373 22.0706 8.74609 19.9787 8.77246C17.2979 9.27344 15.7069 10.8643 15.2059 13.5449C15.1796 14.5819 15.1707 15.619 15.1796 16.6562C14.1248 16.6562 13.07 16.6562 12.0153 16.6562C12.0153 18.7656 12.0153 20.875 12.0153 22.9844C13.07 22.9844 14.1248 22.9844 15.1796 22.9844C15.1796 25.1289 15.1796 27.2734 15.1796 29.418C12.6117 29.442 10.0451 29.4156 7.47975 29.3389C6.52167 29.084 5.91518 28.4776 5.66028 27.5195C5.57326 20.9991 5.55568 14.4776 5.60754 7.95508C5.76633 6.53949 6.54862 5.74848 7.9544 5.58203Z" fill="#1A1A18"/>
</g>
</svg>
