<svg width="35" height="35" viewBox="0 0 35 35" fill="none" xmlns="http://www.w3.org/2000/svg">
<g id="icon_linkedIn">
<g id="Union" opacity="0.965">
<path fill-rule="evenodd" clip-rule="evenodd" d="M4 8.75167V7.4281C4.6423 4.99752 6.26062 3.85925 8.85502 4.01328C10.7249 4.38092 11.8796 5.46625 12.319 7.26927C12.6165 9.21179 11.9164 10.703 10.2188 11.7429C8.18779 12.6334 6.41489 12.2893 4.90009 10.7106C4.44971 10.119 4.14968 9.46603 4 8.75167ZM7.65491 5.36333C9.29507 5.2358 10.377 5.92406 10.9007 7.4281C11.1674 9.12617 10.4673 10.2468 8.80047 10.79C7.06076 10.9897 5.94247 10.2749 5.4456 8.64578C5.26495 6.96634 6.00139 5.87218 7.65491 5.36333Z" fill="#1A1A18"/>
<path fill-rule="evenodd" clip-rule="evenodd" d="M4.92736 12.8283C6.964 12.8194 9.00059 12.8283 11.0371 12.8547C11.5962 13.065 11.9144 13.4621 11.9917 14.046C12.0281 19.4461 12.0281 24.8463 11.9917 30.2465C11.8988 30.5835 11.6897 30.8218 11.3644 30.9612C9.12758 30.9266 6.891 30.9266 4.65461 30.9612C4.37729 30.826 4.24091 30.6055 4.24548 30.2994C4.2091 24.8816 4.2091 19.4638 4.24548 14.046C4.24889 13.5091 4.47619 13.1032 4.92736 12.8283ZM5.58197 14.2048C7.17288 14.1432 8.77303 14.1344 10.3824 14.1783C10.4515 14.1947 10.5152 14.2211 10.5734 14.2577C10.6007 19.3579 10.6098 24.458 10.6007 29.5582H5.63652C5.65467 24.4315 5.6365 19.3137 5.58197 14.2048Z" fill="#1A1A18"/>
<path fill-rule="evenodd" clip-rule="evenodd" d="M31.93 30.4583V19.1285C31.2924 15.9064 29.3286 13.8857 26.0385 13.0665C23.8932 12.7994 21.7839 12.967 19.7106 13.5695C19.7173 13.2205 19.5536 12.9822 19.2197 12.8547C17.5468 12.8194 15.8739 12.8194 14.201 12.8547C13.8065 13.0082 13.5428 13.2818 13.41 13.6754C13.3196 19.285 13.3014 24.897 13.3555 30.5112C13.4568 30.852 13.6932 31.0109 14.0646 30.9877C15.6921 30.9173 17.3194 30.9173 18.9469 30.9877C19.6694 30.9268 19.9331 30.5562 19.7379 29.8759C19.7015 26.9817 19.7015 24.0875 19.7379 21.1932C19.7801 21.0054 19.8528 20.8289 19.9561 20.6638C20.5791 19.8718 21.3882 19.5982 22.3836 19.8432C23.0964 20.0759 23.5418 20.5436 23.7201 21.2462L23.7747 30.4583C23.9213 30.8695 24.2213 31.046 24.6748 30.9877C26.8206 30.9181 28.9663 30.9181 31.1118 30.9877C31.5039 30.9766 31.7767 30.8002 31.93 30.4583ZM18.1287 14.1783C16.9556 14.1344 15.7919 14.1432 14.6374 14.2048C14.6563 14.2081 14.6732 14.2151 14.688 14.2258C14.6997 14.2342 14.7101 14.2448 14.7192 14.2577C14.7465 19.3579 14.7556 24.458 14.7465 29.5582H18.2923C18.2832 26.7346 18.2923 23.9109 18.3196 21.0874C18.3897 20.53 18.6079 20.0359 18.9742 19.605C19.896 18.6303 21.0324 18.2332 22.3836 18.4137C23.9127 18.7506 24.831 19.6594 25.1384 21.1403C25.1657 23.9462 25.1748 26.7522 25.1657 29.5582H30.5663C30.5911 26.116 30.5639 22.6747 30.4844 19.2344C29.988 16.8994 28.5788 15.3376 26.2567 14.5489C23.7084 14.0794 21.2536 14.3706 18.8924 15.4225C18.7143 15.3974 18.5597 15.3268 18.4287 15.2107C18.3161 14.9045 18.2615 14.5869 18.265 14.2577C18.2241 14.2246 18.1786 14.1981 18.1287 14.1783Z" fill="#1A1A18"/>
</g>
</g>
</svg>
