<svg width="35" height="35" viewBox="0 0 35 35" fill="none" xmlns="http://www.w3.org/2000/svg">
<g id="icon_telegeram">
<path id="image 2 (Traced)" fill-rule="evenodd" clip-rule="evenodd" d="M16.9514 8.74613C9.90351 11.2046 4.01001 13.3131 3.85477 13.4319C3.69953 13.5507 3.45814 13.8254 3.31848 14.0423C3.16245 14.2845 3.06445 14.616 3.06445 14.9011C3.06445 15.1565 3.16674 15.5774 3.29173 15.8364C3.43929 16.1419 3.67796 16.393 3.97151 16.5512C4.22035 16.6854 5.75187 17.4104 7.37472 18.1625C8.99769 18.9145 10.3402 19.5451 10.3579 19.564C10.3758 19.5828 10.8278 21.7442 11.3625 24.367C12.1331 28.1466 12.3844 29.1916 12.5741 29.405C12.7237 29.5732 12.9435 29.6731 13.1606 29.6712C13.4324 29.6689 14.0602 29.2295 16.0476 27.6508C18.2048 25.9373 18.6131 25.6566 18.7573 25.7878C18.8508 25.8728 20.0888 26.9448 21.5085 28.17C22.9281 29.3953 24.2448 30.4827 24.4344 30.5862C24.6628 30.711 24.9592 30.7562 25.3127 30.7203C25.6271 30.6885 25.9758 30.5587 26.1613 30.4044C26.3345 30.2605 26.5439 30.0406 26.6266 29.9158C26.7093 29.791 27.9482 24.437 29.3798 18.0182C31.2872 9.46562 31.9695 6.21492 31.9336 5.85124C31.9067 5.57836 31.7772 5.1957 31.646 5.00098C31.5147 4.80613 31.2336 4.55962 31.0212 4.45307C30.8087 4.34652 30.4394 4.26323 30.2004 4.26789C29.9505 4.27278 24.3177 6.17674 16.9514 8.74613ZM30.2291 6.25799C30.196 6.37289 29.0469 11.5122 27.6754 17.6788C26.304 23.8452 25.1691 28.9042 25.1534 28.9208C25.1377 28.9375 23.1895 27.2748 20.824 25.226C18.4584 23.1772 16.5238 21.4472 16.5245 21.3815C16.5253 21.3159 18.4889 19.0943 20.8879 16.4448C23.2869 13.7952 25.3115 11.5132 25.3869 11.3738C25.4623 11.2343 25.5258 11.0335 25.528 10.9275C25.5302 10.8215 25.4267 10.5933 25.298 10.4204C25.1336 10.1994 24.9581 10.106 24.7077 10.106C24.4508 10.106 22.5014 11.1914 17.7192 13.9971L11.0869 17.8882L7.90807 16.4183C6.15967 15.6099 4.7992 14.9229 4.88466 14.8914C4.97024 14.86 10.6797 12.8628 17.5724 10.4535C24.4651 8.04394 30.1461 6.06732 30.1968 6.06088C30.2476 6.05443 30.262 6.14309 30.2291 6.25799ZM18.1782 16.7979C17.162 17.9191 15.8822 19.3413 15.3346 19.9586L14.3386 21.0806L13.8038 23.0625L13.269 25.0443L12.6877 22.1988C12.3679 20.6337 12.1422 19.3385 12.1862 19.3204C12.2301 19.3024 13.9934 18.2701 16.1047 17.0263C18.2159 15.7824 19.962 14.7636 19.9847 14.7621C20.0075 14.7606 19.1946 15.6767 18.1782 16.7979ZM16.7045 24.0234L17.1916 24.4838L15.9249 25.4832C15.2283 26.0328 14.6847 26.4087 14.717 26.3185C14.7493 26.2281 14.8622 25.8321 14.9678 25.4384C15.0735 25.0446 15.2608 24.3583 15.3841 23.9134L15.6082 23.1041L15.913 23.3336C16.0805 23.4597 16.4367 23.7702 16.7045 24.0234Z" fill="#1A1A18"/>
</g>
</svg>
