<svg width="35" height="35" viewBox="0 0 35 35" fill="none" xmlns="http://www.w3.org/2000/svg">
<g id="icon_vk">
<path id="Vector 118 (Stroke)" fill-rule="evenodd" clip-rule="evenodd" d="M6.07866 7.10545C6.34002 7.12302 6.58314 7.13937 6.79284 7.14919C6.82969 7.15091 6.86664 7.15254 6.90342 7.15416C7.04899 7.16056 7.19176 7.16684 7.31449 7.17865C7.47205 7.19379 7.65274 7.22199 7.83164 7.2989C8.2417 7.4752 8.45981 7.82476 8.63475 8.19873C8.75987 8.46622 8.90214 8.83747 9.08498 9.31462C9.14794 9.47892 9.21571 9.65578 9.28925 9.84529C9.58461 10.6064 9.99467 11.6311 10.6075 13.0145C11.8857 15.9003 13.0014 17.1532 13.6807 17.6311V11.204C13.6807 10.8581 13.5231 10.4964 13.2688 10.037C13.2405 9.986 13.21 9.93181 13.1784 9.8757C13.0842 9.70857 12.9804 9.52435 12.8985 9.35525C12.7893 9.12991 12.6672 8.83247 12.6511 8.50454C12.6369 8.21426 12.7675 7.99953 12.8856 7.87544C12.9946 7.76083 13.119 7.69199 13.2101 7.64984C13.396 7.56378 13.6235 7.50853 13.8451 7.46858C14.3012 7.38634 14.9108 7.33915 15.5591 7.31313C16.8634 7.26077 18.4237 7.29073 19.463 7.33411C20.0505 7.35444 20.3011 7.90332 20.3948 8.1856C20.5067 8.5226 20.5615 8.94862 20.591 9.38317C20.651 10.2663 20.6189 11.4205 20.5804 12.5288C20.5755 12.6698 20.5705 12.81 20.5656 12.9491C20.5308 13.9265 20.498 14.8474 20.517 15.5596C20.5246 15.8455 20.5402 16.0742 20.5623 16.2465C20.7336 16.1583 20.9619 15.9794 21.2661 15.644C21.7455 15.1154 22.279 14.3543 22.9434 13.4065C22.9675 13.372 22.9919 13.3373 23.0164 13.3023C23.6661 12.3756 24.2113 11.2771 24.6684 10.2977C24.7565 10.109 24.8429 9.92119 24.9263 9.73993C25.0536 9.46315 25.1739 9.20174 25.2819 8.97652C25.4554 8.61497 25.6374 8.25907 25.8182 8.02582C25.8704 7.95838 25.9133 7.89945 25.9564 7.84008L25.9677 7.8246C26.0109 7.76519 26.0649 7.69084 26.1229 7.62275C26.2628 7.4584 26.4336 7.3203 26.6851 7.24133C26.8909 7.1767 27.1277 7.16059 27.3811 7.15355C27.5912 7.14771 27.8607 7.14799 28.2006 7.14835C28.2874 7.14844 28.3787 7.14854 28.4749 7.14854L28.5204 7.14853C29.4446 7.14851 30.2596 7.14849 30.8596 7.23301C31.1637 7.27584 31.472 7.34729 31.7309 7.48855C32.007 7.63923 32.2727 7.89823 32.3626 8.31011L32.3698 8.34279L32.3739 8.37607C32.4214 8.75568 32.3546 9.16649 32.251 9.55168C32.1444 9.94812 31.9816 10.3782 31.7876 10.8191C31.3996 11.701 30.8595 12.6865 30.3053 13.6303C29.7759 14.5316 29.2236 15.4117 28.7634 16.145C28.7405 16.1816 28.7177 16.2179 28.6952 16.2537C28.2069 17.0319 27.8635 17.5848 27.7399 17.8432C27.6192 18.0953 27.5778 18.2175 27.5646 18.2749C27.5659 18.2768 27.5674 18.2788 27.5689 18.2809C27.6372 18.3734 27.7646 18.4958 28.0401 18.749L28.0638 18.7707C28.3178 19.004 28.6505 19.3097 29.0559 19.7275C29.9102 20.6079 30.9017 21.9754 31.68 23.2368C32.0711 23.8707 32.4177 24.4929 32.6716 25.0297C32.7983 25.2977 32.9065 25.554 32.9856 25.7859C33.0606 26.0058 33.1269 26.2528 33.1349 26.4869C33.1472 26.8448 33.0006 27.1346 32.8009 27.3354C32.619 27.5184 32.3942 27.6298 32.1943 27.703C31.7923 27.8502 31.2845 27.9151 30.8015 27.946C30.1037 27.9906 29.3057 27.9686 28.7468 27.9532C28.5359 27.9474 28.359 27.9426 28.2344 27.9426C27.5773 27.9426 27.0867 27.7347 26.6861 27.4C26.3856 27.149 26.1366 26.8198 25.9325 26.5501C25.8926 26.4974 25.8545 26.447 25.818 26.3999C25.59 26.1054 24.5435 24.9482 23.4065 23.8571C22.841 23.3146 22.2704 22.8051 21.7825 22.4353C21.5378 22.2499 21.3273 22.1098 21.1577 22.0187C21.0114 21.9401 20.9373 21.9212 20.9196 21.9167C20.9145 21.9154 20.9141 21.9153 20.9178 21.9153C20.8652 21.9153 20.8558 21.9214 20.826 21.9655C20.7709 22.0469 20.7078 22.2116 20.6603 22.4941C20.6145 22.7659 20.5934 23.079 20.578 23.4118C20.5747 23.4836 20.5716 23.5578 20.5684 23.6331C20.558 23.8849 20.547 24.148 20.5252 24.3674C20.513 24.4903 20.5382 24.6515 20.586 24.9575C20.5919 24.9958 20.5983 25.0363 20.6049 25.0793C20.6543 25.3983 20.7203 25.8608 20.6245 26.3142C20.5165 26.8262 20.2186 27.2682 19.6782 27.5548C19.1785 27.8199 18.4921 27.9426 17.5859 27.9426C13.8073 27.9426 10.0676 25.1701 6.58835 19.964C4.83481 17.3402 3.66799 14.7818 2.93399 12.7381C2.20918 10.7199 1.88589 9.14515 1.86496 8.49198C1.8551 8.18435 1.94917 7.90332 2.12858 7.67933C2.29487 7.47173 2.50812 7.34502 2.70196 7.26372C3.0815 7.10455 3.55703 7.05052 4.0079 7.03371C4.65368 7.00963 5.42351 7.0614 6.07866 7.10545ZM3.15463 8.55632C3.20273 9.07895 3.47509 10.4145 4.1307 12.24C4.83087 14.1896 5.94838 16.6414 7.62985 19.1574C11.0206 24.231 14.4258 26.5614 17.5859 26.5614C18.4144 26.5614 18.8701 26.4437 19.1111 26.3159C19.3113 26.2097 19.3527 26.1062 19.3734 26.0081C19.4065 25.8514 19.3909 25.6391 19.3394 25.3063C19.3341 25.2724 19.3281 25.2356 19.3217 25.1964C19.2782 24.9294 19.2166 24.551 19.2495 24.2202C19.2667 24.0474 19.2751 23.8465 19.2851 23.6069C19.2886 23.5237 19.2922 23.436 19.2965 23.3431C19.3123 23.0034 19.3362 22.614 19.3978 22.2479C19.4576 21.8926 19.5642 21.4841 19.7892 21.1518C20.0396 20.7821 20.4209 20.5341 20.9178 20.5341C21.2096 20.5341 21.4995 20.6588 21.7304 20.7828C21.9799 20.9168 22.2488 21.0996 22.5211 21.306C23.0669 21.7196 23.6792 22.2686 24.2602 22.8261C25.416 23.9352 26.5164 25.1446 26.8036 25.5157C26.8596 25.588 26.9108 25.6551 26.9585 25.7176C27.1594 25.9812 27.298 26.1629 27.4727 26.3089C27.6475 26.4549 27.8611 26.5614 28.2344 26.5614C28.4093 26.5614 28.6229 26.5674 28.8614 26.574C29.408 26.5893 30.0851 26.6082 30.7254 26.5672C31.1828 26.538 31.5487 26.4805 31.7812 26.3954C31.7948 26.3904 31.8073 26.3855 31.8187 26.3809C31.8087 26.3458 31.7963 26.3062 31.7812 26.2619C31.7253 26.0981 31.6408 25.8944 31.5282 25.6563C31.3033 25.1808 30.9844 24.6059 30.6112 24.001C29.8609 22.7848 28.9288 21.5085 28.1687 20.7251C27.79 20.3349 27.4805 20.0506 27.228 19.8186L27.1835 19.7777C26.9536 19.5666 26.7223 19.3541 26.5641 19.1397C26.3665 18.8719 26.2436 18.5523 26.2839 18.1548C26.3165 17.8328 26.4549 17.5124 26.5993 17.2107C26.7676 16.859 27.1713 16.2149 27.632 15.4807L27.6978 15.3759C28.1597 14.6398 28.7022 13.7753 29.2208 12.8923C29.7657 11.9643 30.2733 11.0341 30.6281 10.2279C30.8055 9.82461 30.9379 9.46751 31.0186 9.16755C31.0736 8.96332 31.0979 8.80922 31.1046 8.6988C31.0279 8.66728 30.8983 8.63139 30.6931 8.60249C30.1865 8.53112 29.4556 8.52969 28.4749 8.52969C28.3726 8.52969 28.2772 8.5296 28.1882 8.52951C27.8517 8.52918 27.6055 8.52893 27.4142 8.53425C27.202 8.54014 27.1065 8.55275 27.0635 8.56227C27.0454 8.58412 27.0216 8.61597 26.978 8.67585L26.9662 8.69208C26.9237 8.75064 26.8692 8.82564 26.8034 8.91052C26.7266 9.00974 26.6037 9.23138 26.4219 9.61034C26.3173 9.82842 26.2066 10.069 26.0845 10.3345C26.0007 10.5168 25.9114 10.711 25.8149 10.9177C25.3531 11.9071 24.7648 13.1012 24.0405 14.1343C24.0054 14.1844 23.9705 14.2342 23.9357 14.2839C23.3014 15.1891 22.7225 16.0152 22.1841 16.6089C21.6397 17.2091 20.976 17.7589 20.1851 17.6981C19.8606 17.6731 19.6529 17.4565 19.5435 17.2799C19.4399 17.1128 19.3832 16.9232 19.3479 16.7653C19.2756 16.4424 19.2459 16.03 19.2345 15.5992C19.2142 14.8366 19.249 13.8626 19.2835 12.8939C19.2885 12.7547 19.2935 12.6156 19.2983 12.4773C19.3373 11.3533 19.3653 10.2774 19.3114 9.48391C19.287 9.12439 19.2481 8.86779 19.2034 8.70594C18.1902 8.66811 16.783 8.64611 15.6069 8.69333C14.9911 8.71805 14.4617 8.76099 14.0907 8.82483C14.1389 8.91691 14.1929 9.01273 14.2545 9.12203C14.2906 9.18605 14.3293 9.2547 14.3709 9.32993C14.6232 9.78564 14.9637 10.4407 14.9637 11.204V17.7861C14.9637 18.1743 14.8273 18.5771 14.5411 18.8498C14.2253 19.1507 13.7733 19.2397 13.3461 19.014C12.3196 18.4716 10.9286 16.9485 9.44935 13.609C8.82555 12.2007 8.40689 11.1546 8.10538 10.3777C8.01919 10.1556 7.94415 9.95984 7.87769 9.78646C7.70526 9.33667 7.59056 9.03745 7.48881 8.81992C7.42167 8.6764 7.38013 8.61397 7.35826 8.58723C7.3557 8.5841 7.35366 8.58177 7.35214 8.58012C7.33914 8.57534 7.29964 8.56387 7.20035 8.55433C7.11132 8.54577 7.00996 8.54127 6.87047 8.53508C6.82952 8.53326 6.78528 8.5313 6.73711 8.52904C6.4766 8.51685 6.20129 8.49826 5.92046 8.4793C5.29062 8.43678 4.633 8.39239 4.05232 8.41404C3.6317 8.42973 3.33663 8.47983 3.16774 8.55066C3.16312 8.5526 3.15876 8.55448 3.15463 8.55632ZM19.1538 8.57003C19.154 8.56938 19.1568 8.57374 19.1619 8.58503C19.1562 8.57631 19.1537 8.57067 19.1538 8.57003Z" fill="#1A1A18"/>
</g>
</svg>
