<svg width="35" height="35" viewBox="0 0 35 35" fill="none" xmlns="http://www.w3.org/2000/svg">
<g id="icon_Youtube">
<g id="Union">
<path fill-rule="evenodd" clip-rule="evenodd" d="M12.98 12.5296C12.98 11.4937 14.1169 10.8298 15.0615 11.3141L23.5512 15.667C24.5259 16.1668 24.5654 17.5063 23.6217 18.0593L15.1321 23.034C14.1868 23.5879 12.98 22.928 12.98 21.8572V12.5296ZM22.888 16.8825L14.3984 12.5296V21.8572L22.888 16.8825Z" fill="#1A1A18"/>
<path fill-rule="evenodd" clip-rule="evenodd" d="M27.7343 6.43479L27.7405 6.43526C29.3703 6.55999 30.5972 7.44167 31.2919 8.93823L31.3218 9.00265L31.3445 9.07005C31.5509 9.68532 31.7054 10.3147 31.808 10.9574L31.8156 11.0051L31.8196 11.0532C32.1784 15.3594 32.1784 19.6658 31.8196 23.9718L31.815 24.0265L31.8058 24.0806C31.6787 24.828 31.479 25.5544 31.2069 26.2585L31.1749 26.3412L31.1319 26.4186C30.382 27.7678 29.1801 28.5297 27.6531 28.5918C21.0105 29.0472 14.3679 29.0479 7.72561 28.5936C6.4366 28.5939 5.29765 28.1182 4.37511 27.2002L4.2661 27.0918L4.18599 26.9601C3.63796 26.0592 3.30344 25.0715 3.18206 24.0113L3.1799 23.9924L3.1783 23.9735C2.8044 19.556 2.82438 15.1406 3.23833 10.7285L3.24345 10.674L3.25317 10.6202C3.39791 9.81885 3.65407 9.0558 4.02139 8.33537L4.07331 8.23353L4.14241 8.1427C4.78879 7.2931 5.64892 6.73629 6.68494 6.52017L6.75722 6.50509L6.83075 6.49865C9.16041 6.29472 11.485 6.15835 13.8045 6.08963L13.8125 6.0894L13.8205 6.08926C18.461 6.01136 23.0969 6.12641 27.7281 6.43437L27.7343 6.43479ZM7.76524 27.3217C14.3722 27.7756 20.9793 27.7756 27.5865 27.3217C28.6752 27.2822 29.4912 26.7735 30.0346 25.7958C30.2757 25.172 30.4527 24.5285 30.5655 23.8651C30.9185 19.6301 30.9185 15.3951 30.5655 11.1599C30.474 10.5868 30.3364 10.0263 30.1526 9.47837C29.6446 8.38405 28.8088 7.79242 27.6454 7.70339C23.0487 7.39771 18.4474 7.28353 13.8414 7.36085C11.546 7.42885 9.24535 7.5638 6.93936 7.76567C6.20823 7.91818 5.60845 8.30227 5.14011 8.91785C4.83019 9.52571 4.61389 10.1693 4.4912 10.8485C4.08438 15.1847 4.06474 19.5236 4.43221 23.8651C4.53293 24.7449 4.80822 25.5545 5.2581 26.294C5.95647 26.989 6.79222 27.3315 7.76524 27.3217Z" fill="#1A1A18"/>
</g>
</g>
</svg>
