<svg width="35" height="35" viewBox="0 0 35 35" fill="none" xmlns="http://www.w3.org/2000/svg">
<g id="icon_instagram">
<g id="Union">
<path d="M26.6216 9.83735C26.6216 10.6434 25.9683 11.2968 25.1622 11.2968C24.3561 11.2968 23.7027 10.6434 23.7027 9.83735C23.7027 9.03133 24.3561 8.37789 25.1622 8.37789C25.9683 8.37789 26.6216 9.03133 26.6216 9.83735Z" fill="#1A1A18"/>
<path fill-rule="evenodd" clip-rule="evenodd" d="M23.8 17.4995C23.8 20.9789 20.9794 23.7995 17.5 23.7995C14.0206 23.7995 11.2 20.9789 11.2 17.4995C11.2 14.0201 14.0206 11.1995 17.5 11.1995C20.9794 11.1995 23.8 14.0201 23.8 17.4995ZM22.54 17.4995C22.54 20.283 20.2836 22.5395 17.5 22.5395C14.7165 22.5395 12.46 20.283 12.46 17.4995C12.46 14.716 14.7165 12.4595 17.5 12.4595C20.2836 12.4595 22.54 14.716 22.54 17.4995Z" fill="#1A1A18"/>
<path fill-rule="evenodd" clip-rule="evenodd" d="M10.2754 4.23682C9.09777 4.43048 8.0255 4.86993 7.05859 5.55512C5.18004 7.0725 4.20446 9.04998 4.13184 11.4877C4.08492 12.6913 4.04098 13.8866 4 15.0735V19.9251C4.04032 21.1471 4.08438 22.3776 4.13184 23.6164C4.25972 26.375 5.48151 28.4756 7.79688 29.918C9.33639 30.653 10.9537 31.0134 12.6484 30.9991H22.457C22.7561 30.9736 23.0574 30.949 23.3613 30.9255L23.6939 30.9002C23.8435 30.889 23.9937 30.878 24.1445 30.8673C26.3856 30.6481 28.1874 29.6549 29.5498 27.8878C30.4406 26.5038 30.924 24.9921 31 23.3527V11.4877C30.9312 10.8934 30.8346 10.2957 30.71 9.69474C30.004 7.03753 28.3429 5.28857 25.7266 4.44775C24.6283 4.17354 23.5208 4.02409 22.4043 3.99951H12.6484C11.8612 4.03519 11.0701 4.11429 10.2754 4.23682ZM5.59027 11.5445L5.59071 11.5311C5.65026 9.52984 6.41985 7.96184 7.9397 6.7197C8.71259 6.17991 9.5626 5.83412 10.5052 5.67806C11.2358 5.56572 11.9614 5.49283 12.6821 5.45896H22.3878C23.3731 5.48181 24.3516 5.61241 25.3253 5.85189C27.4287 6.54114 28.7099 7.89169 29.2892 10.0314C29.3094 10.1297 29.3288 10.2279 29.3473 10.326C29.3723 10.4582 29.3959 10.5901 29.418 10.7217C29.4658 11.0069 29.5066 11.2908 29.5406 11.5734V23.3175C29.4728 24.666 29.0807 25.9009 28.356 27.0455C27.2514 28.4545 25.8356 29.2311 24.0208 29.4129C23.4714 29.4521 22.9296 29.4944 22.3951 29.5397H12.6423L12.6361 29.5397C11.1918 29.5518 9.81803 29.2524 8.5 28.6361C6.64474 27.4551 5.69607 25.8101 5.58994 23.5544C5.54303 22.3283 5.49941 21.1105 5.45942 19.9009V15.0988C5.47865 14.5436 5.49843 13.9866 5.51897 13.4278L5.55149 12.5543C5.56412 12.2184 5.57709 11.8818 5.59027 11.5445Z" fill="#1A1A18"/>
</g>
</g>
</svg>
