<svg width="35" height="35" viewBox="0 0 35 35" fill="none" xmlns="http://www.w3.org/2000/svg">
<g id="icon_viber">
<g id="Union">
<path d="M18.0604 7.01586C21.6639 7.93439 24.1862 10.1625 25.6273 13.7003C25.7897 14.0727 25.9206 14.4569 26.0196 14.8527C25.9014 15.4157 25.5837 15.5695 25.0668 15.3137C23.9084 11.5874 21.5169 9.12871 17.8923 7.93785C17.6548 7.57527 17.7108 7.26791 18.0604 7.01586Z" fill="#1A1A18"/>
<path fill-rule="evenodd" clip-rule="evenodd" d="M13.4519 8.03434C13.0916 7.68315 12.6342 7.52909 12.1446 7.58381L11.9106 7.60997L11.7279 7.76261C11.0124 8.36043 10.3089 8.98591 9.61739 9.63911L9.54448 9.70799L9.49017 9.79311C8.58627 11.2098 8.49743 12.744 9.21324 14.2841L9.22842 14.3168L9.24634 14.3479C11.9277 19.0099 15.7019 22.4124 20.5497 24.5384L20.6272 24.5724L20.7099 24.589C21.694 24.7864 22.623 24.5849 23.4471 23.9968L23.5225 23.9431L23.584 23.8732C24.3237 23.0321 24.9725 22.1224 25.53 21.1449L25.5722 21.071L25.5986 20.9897C25.728 20.5908 25.728 20.1783 25.5986 19.7795L25.5167 19.5271L25.3062 19.3722C24.1063 18.4894 22.8757 17.6523 21.6141 16.8612L21.5472 16.8192L21.4736 16.7914C20.8509 16.5565 20.2075 16.4947 19.5987 16.7236C19.2084 16.8705 18.8821 17.1181 18.6115 17.4332C18.2967 17.2972 17.9883 17.1439 17.6861 16.973C16.8363 16.4008 16.2294 15.6513 15.8543 14.7063C16.1128 14.4339 16.3169 14.1204 16.4507 13.7629C16.6579 13.2089 16.6706 12.6174 16.5398 12.0215L16.5022 11.8505L16.4 11.7102C15.4863 10.4572 14.5182 9.24725 13.4958 8.08055L13.4747 8.05656L13.4519 8.03434ZM10.7725 10.7746C11.3139 10.2654 11.8626 9.77425 12.4184 9.30088C13.3282 10.3459 14.1931 11.4264 15.0132 12.5423C15.0505 12.8066 15.0234 13.0108 14.9623 13.1744C14.8892 13.3697 14.7419 13.5753 14.4603 13.7804L13.9918 14.1215L14.158 14.6865C14.6165 16.2459 15.5173 17.4818 16.8417 18.3642L16.8649 18.3796L16.889 18.3933C17.4518 18.7138 18.0348 18.9824 18.6376 19.1991L19.2642 19.4245L19.5933 18.8317C19.7942 18.4697 19.9892 18.3225 20.1466 18.2633C20.2942 18.2078 20.5151 18.1896 20.8552 18.3057C21.9481 18.9933 23.0171 19.7163 24.0624 20.4747C23.5977 21.2668 23.0657 22.0082 22.4659 22.6994C22.0385 22.9819 21.593 23.0771 21.0931 22.9941C16.6085 21.0078 13.1296 17.8639 10.6376 13.5457C10.1868 12.555 10.2349 11.6644 10.7725 10.7746Z" fill="#1A1A18"/>
<path d="M18.172 9.66642C20.7449 10.1777 22.4824 11.7144 23.3848 14.2763C23.5178 15.1401 23.219 15.3706 22.4879 14.9678C21.7253 12.7518 20.268 11.2536 18.116 10.4732C18.0372 10.1932 18.0558 9.92434 18.172 9.66642Z" fill="#1A1A18"/>
<path d="M21.1435 14.8527C20.9488 13.1731 20.0332 12.1742 18.397 11.8563C18.1162 12.0506 18.0228 12.3195 18.1168 12.663C18.4302 12.938 18.7852 13.1492 19.1817 13.2969C19.7023 13.7913 20.1134 14.3675 20.4148 15.0256C20.6979 15.1289 20.9408 15.0712 21.1435 14.8527Z" fill="#1A1A18"/>
<path fill-rule="evenodd" clip-rule="evenodd" d="M14.9213 29.2013L21.3111 29.086C26.5104 28.1586 29.5932 25.0278 30.5595 19.6933C30.6343 17.1579 30.6343 14.6224 30.5595 12.0869C29.557 6.86891 26.5115 3.77642 21.4232 2.80945C18.7704 2.75183 16.1173 2.73263 13.464 2.75183C8.45834 3.80679 5.45024 6.91849 4.43984 12.0869C4.3651 14.5071 4.3651 16.9274 4.43984 19.3476C4.93201 23.6554 7.09934 26.6904 10.9417 28.4522L11.0538 32.0249C11.144 32.1752 11.2748 32.252 11.4462 32.2554C11.5609 32.1714 11.6749 32.0864 11.7882 32.0005C12.0723 31.7851 12.3522 31.5637 12.6278 31.3363C13.4285 30.6754 14.1931 29.9638 14.9213 29.2013ZM12.5622 29.2475C12.9805 28.8654 13.3875 28.4671 13.7835 28.0526L14.2408 27.5738L21.1568 27.4491C23.4472 27.0213 25.1597 26.1376 26.4019 24.876C27.6441 23.6144 28.5248 21.8645 28.9692 19.5146C29.038 17.1013 29.038 14.6881 28.9695 12.2749C28.5096 9.98492 27.6314 8.268 26.4029 7.02047C25.1738 5.77244 23.492 4.89041 21.2573 4.44573C18.7168 4.39178 16.1761 4.37326 13.6351 4.39016C11.4522 4.87424 9.79952 5.77597 8.58482 7.03252C7.36568 8.29367 6.49286 10.0104 6.02953 12.2787C5.96083 14.5938 5.96151 16.9089 6.03157 19.224C6.47246 22.9226 8.28448 25.4386 11.5913 26.9549L12.5035 27.3731L12.5622 29.2475Z" fill="#1A1A18"/>
</g>
</g>
</svg>
