<svg width="35" height="35" viewBox="0 0 35 35" fill="none" xmlns="http://www.w3.org/2000/svg">
<g id="icon_whatsup">
<path id="image 3 (Traced)" fill-rule="evenodd" clip-rule="evenodd" d="M15.2915 3.52502C14.8361 3.60304 14.1407 3.75143 13.7461 3.85464C13.3514 3.95795 12.6063 4.21674 12.0903 4.42966C11.5742 4.64259 10.7615 5.04845 10.2842 5.33165C9.80704 5.61485 9.01226 6.18137 8.51806 6.59054C8.02397 6.99971 7.30558 7.69585 6.92177 8.1375C6.53796 8.57916 6.00998 9.26523 5.74859 9.66225C5.48719 10.0593 5.09058 10.7474 4.86704 11.1915C4.64362 11.6356 4.28939 12.5121 4.07966 13.1393C3.87004 13.7663 3.62487 14.7688 3.5348 15.3669C3.44472 15.9649 3.37109 16.9267 3.37109 17.504C3.37109 18.0814 3.44284 19.0303 3.5306 19.6127C3.61825 20.1952 3.84708 21.1648 4.03893 21.7674C4.23089 22.3701 4.58832 23.2676 4.83327 23.7621L5.27856 24.661L4.54494 27.3873C4.14148 28.8869 3.81131 30.2513 3.81131 30.4195C3.81131 30.5961 3.91916 30.8265 4.06675 30.9654C4.20727 31.0976 4.45277 31.2056 4.61227 31.2056C4.77167 31.2056 6.12655 30.8755 7.62294 30.472L10.3437 29.7385L11.2446 30.1823C11.7401 30.4265 12.5428 30.7572 13.0285 30.9172C13.5142 31.0772 14.2593 31.2842 14.6843 31.3771C15.1093 31.4701 16.1525 31.574 17.0024 31.6082C18.1608 31.6548 18.8242 31.6249 19.6515 31.4886C20.2584 31.3887 21.2598 31.1379 21.8769 30.9312C22.4938 30.7245 23.3617 30.3725 23.8053 30.1488C24.2489 29.9251 24.9364 29.5281 25.333 29.2664C25.7297 29.0048 26.4151 28.4762 26.8563 28.092C27.2975 27.7079 27.9929 26.9887 28.4017 26.4942C28.8104 25.9995 29.3764 25.2039 29.6593 24.7262C29.9422 24.2484 30.3479 23.4349 30.5608 22.9184C30.7738 22.4018 31.0475 21.5813 31.169 21.0952C31.2907 20.609 31.4438 19.8536 31.5094 19.4165C31.5749 18.9795 31.6286 18.1188 31.6286 17.504C31.6286 16.8892 31.5749 16.0285 31.5094 15.5915C31.4438 15.1544 31.2907 14.399 31.169 13.9129C31.0475 13.4267 30.7738 12.6062 30.5608 12.0896C30.3479 11.5731 29.9422 10.7596 29.6593 10.2819C29.3764 9.80424 28.7816 8.97452 28.3376 8.43805C27.8936 7.9017 27.0918 7.09916 26.556 6.65463C26.0201 6.21021 25.1912 5.61485 24.714 5.33165C24.2368 5.04845 23.4241 4.64237 22.9081 4.42922C22.392 4.21607 21.5724 3.94204 21.0867 3.82038C20.601 3.69861 19.8464 3.54536 19.4097 3.47972C18.9732 3.41409 18.0542 3.36547 17.3676 3.37176C16.6811 3.37795 15.7468 3.4469 15.2915 3.52502ZM19.6146 5.29066C20.1261 5.38005 20.9399 5.58524 21.4228 5.74679C21.9058 5.90845 22.6487 6.21507 23.0737 6.42822C23.4987 6.64137 24.1405 7.01563 24.5002 7.25982C24.8597 7.50413 25.5462 8.07905 26.0256 8.5375C26.505 8.99606 27.1424 9.69695 27.4421 10.0951C27.7417 10.4932 28.2045 11.2416 28.4705 11.7582C28.7366 12.2747 29.0856 13.093 29.2461 13.5764C29.4066 14.0598 29.6109 14.8744 29.7002 15.3864C29.7894 15.8985 29.8624 16.8514 29.8624 17.504C29.8624 18.1566 29.7894 19.1095 29.7002 19.6216C29.6109 20.1336 29.406 20.9482 29.2446 21.4316C29.0831 21.915 28.7768 22.6587 28.5638 23.0841C28.3509 23.5095 27.9786 24.1498 27.7365 24.507C27.4943 24.8641 26.9423 25.5312 26.5095 25.9892C26.0769 26.4472 25.3255 27.1199 24.8398 27.4839C24.3541 27.848 23.46 28.3846 22.8529 28.6766C22.2458 28.9685 21.2523 29.3453 20.6452 29.514C19.6197 29.799 19.3963 29.8207 17.4992 29.8189C15.6257 29.8171 15.3659 29.7922 14.3532 29.5169C13.7187 29.3445 12.6755 28.933 11.8998 28.5492L10.5504 27.8816L8.26384 28.4914C7.00621 28.8269 5.96296 29.0869 5.94541 29.0694C5.92796 29.0518 6.1877 28.0075 6.52283 26.7486L7.13205 24.4598L6.4651 23.109C6.08162 22.3325 5.67054 21.2883 5.49834 20.6532C5.22337 19.6395 5.19842 19.3794 5.19666 17.504C5.19489 15.605 5.21653 15.3814 5.50121 14.3548C5.66977 13.7471 6.04619 12.7526 6.33783 12.1449C6.62947 11.5372 7.16561 10.6421 7.52933 10.156C7.89295 9.66976 8.56497 8.91761 9.02252 8.48457C9.48007 8.05142 10.1465 7.49883 10.5032 7.2564C10.86 7.01408 11.4997 6.64104 11.9247 6.42756C12.3497 6.21397 13.1036 5.90469 13.6001 5.74038C14.0967 5.57596 14.8667 5.37552 15.3111 5.29486C15.7556 5.21419 16.6966 5.14381 17.4019 5.13828C18.1073 5.13287 19.1031 5.20137 19.6146 5.29066ZM12.1328 10.2059C11.8222 10.3842 11.365 10.761 11.1169 11.0434C10.8686 11.3256 10.5593 11.7763 10.4295 12.0448C10.2996 12.3133 10.1241 12.7937 10.0393 13.1124C9.95451 13.4311 9.88453 14.1688 9.88387 14.7515C9.88298 15.4459 9.95816 16.1125 10.1019 16.6852C10.2225 17.166 10.5662 18.0565 10.8656 18.6642C11.165 19.272 11.6548 20.0924 11.9538 20.4874C12.2529 20.8825 12.846 21.5463 13.2717 21.9628C13.6976 22.3792 14.3634 22.9428 14.7514 23.2153C15.1396 23.4876 15.7916 23.8806 16.2006 24.0885C16.6096 24.2965 17.3298 24.5953 17.8012 24.7526C18.4323 24.9632 18.9815 25.0543 19.8846 25.0981C20.6871 25.1371 21.3167 25.1096 21.706 25.0185C22.0333 24.9419 22.5555 24.7606 22.8666 24.6156C23.1777 24.4706 23.6648 24.147 23.9491 23.8965C24.2335 23.646 24.6118 23.1866 24.7899 22.8758C25.0301 22.4565 25.114 22.1664 25.1148 21.7522C25.1156 21.325 25.0416 21.0781 24.8005 20.7024C24.6271 20.4323 24.1339 19.8744 23.7046 19.4627C23.2752 19.051 22.6935 18.6121 22.4119 18.4873C22.0352 18.3205 21.7857 18.2799 21.4682 18.3335C21.2309 18.3737 20.8741 18.5159 20.6753 18.6496C20.4766 18.7834 20.1451 19.1207 19.9388 19.3991L19.5636 19.9053L18.9523 19.7455C18.6161 19.6577 18.0587 19.4431 17.7137 19.2688C17.3687 19.0945 16.8539 18.719 16.5696 18.4345C16.2854 18.15 15.9103 17.6346 15.7362 17.2893C15.562 16.9439 15.3476 16.386 15.2599 16.0494L15.1003 15.4375L15.6059 15.0619C15.8841 14.8554 16.221 14.5236 16.3547 14.3247C16.4883 14.1257 16.6303 13.7685 16.6705 13.531C16.724 13.2132 16.6835 12.9635 16.5168 12.5863C16.3922 12.3045 15.9538 11.7221 15.5425 11.2923C15.1312 10.8626 14.5738 10.3689 14.3039 10.1953C13.9286 9.95396 13.682 9.87993 13.2553 9.8807C12.8414 9.88148 12.5517 9.96546 12.1328 10.2059ZM14.9603 13.3166C14.9603 13.3561 14.614 13.6414 14.1907 13.9505C13.6843 14.3204 13.3958 14.6135 13.3471 14.8075C13.3065 14.9698 13.3582 15.4983 13.462 15.9819C13.5659 16.4657 13.7812 17.1677 13.9403 17.5418C14.0995 17.916 14.414 18.4957 14.6392 18.83C14.8643 19.1642 15.215 19.5921 15.4183 19.7808C15.6217 19.9695 16.0117 20.271 16.2849 20.4506C16.5581 20.6304 17.0875 20.9076 17.4614 21.0669C17.8352 21.226 18.5365 21.4412 19.0197 21.5452C19.5029 21.6492 20.0309 21.7009 20.1929 21.6602C20.3868 21.6115 20.6796 21.3227 21.0491 20.8158C21.3579 20.3921 21.6405 20.0454 21.6772 20.0454C21.7138 20.0454 22.1051 20.4047 22.5467 20.8438C22.9883 21.2829 23.3496 21.7133 23.3496 21.8002C23.3496 21.8871 23.2314 22.1134 23.0869 22.303C22.9424 22.4926 22.5772 22.7824 22.275 22.947C21.9635 23.1167 21.4096 23.2911 20.9949 23.3498C20.5265 23.4163 19.9782 23.4138 19.4686 23.3431C19.0311 23.2824 18.3469 23.11 17.9481 22.9598C17.5494 22.8096 16.95 22.5329 16.6161 22.3449C16.2822 22.1568 15.7358 21.7907 15.4018 21.5314C15.0679 21.2721 14.5423 20.7943 14.2338 20.4697C13.9253 20.1452 13.5222 19.6808 13.3378 19.4377C13.1536 19.1946 12.8496 18.7222 12.6622 18.388C12.4748 18.0537 12.1989 17.4537 12.0489 17.0546C11.8989 16.6554 11.7265 15.9705 11.6659 15.5326C11.5953 15.0225 11.5929 14.4736 11.6592 14.0048C11.7183 13.5875 11.8925 13.0344 12.0644 12.7175C12.2305 12.412 12.5622 12.0197 12.8017 11.8459L13.2372 11.53L14.0987 12.3873C14.5726 12.8588 14.9603 13.2771 14.9603 13.3166Z" fill="#1A1A18"/>
</g>
</svg>
