<svg width="25" height="26" viewBox="0 0 25 26" fill="none" xmlns="http://www.w3.org/2000/svg">
<g id="icon_mail">
<path id="Vector" opacity="0.984" fill-rule="evenodd" clip-rule="evenodd" d="M23.5339 6.50422C23.5339 10.8347 23.5339 15.1652 23.5339 19.4957C23.3118 20.3013 22.809 20.8165 22.0252 21.0412C15.6747 21.0711 9.32405 21.0711 2.97347 21.0412C2.18977 20.8165 1.6869 20.3013 1.46484 19.4957C1.46484 15.1652 1.46484 10.8347 1.46484 6.50422C1.6869 5.69855 2.18977 5.18337 2.97347 4.95868C9.32405 4.92881 15.6747 4.92881 22.0252 4.95868C22.809 5.18337 23.3118 5.69855 23.5339 6.50422ZM3.74933 6.32502C9.57547 6.27279 15.4088 6.26531 21.2494 6.30263C18.7338 8.93201 16.2051 11.5453 13.6632 14.1423C12.8873 14.7098 12.1114 14.7098 11.3356 14.1423C8.79935 11.5437 6.27059 8.93792 3.74933 6.32502ZM2.75795 7.31059C4.62365 9.17495 6.46275 11.0714 8.27521 13C6.45106 14.9182 4.61918 16.8296 2.7795 18.7341C2.75795 14.9263 2.75077 11.1185 2.75795 7.31059ZM22.1977 7.31059C22.2479 11.1109 22.2551 14.9188 22.2192 18.7341C20.3796 16.8296 18.5476 14.9182 16.7235 13C18.5359 11.0864 20.3606 9.18996 22.1977 7.31059ZM9.22349 14.0303C9.57168 14.3248 9.90215 14.6458 10.2149 14.9935C11.7378 16.2777 13.2609 16.2777 14.7838 14.9935C15.0934 14.6643 15.4095 14.3432 15.7321 14.0303C17.591 15.895 19.4301 17.784 21.2494 19.6973C15.416 19.7272 9.58267 19.7272 3.74933 19.6973C5.56952 17.7981 7.39426 15.9091 9.22349 14.0303Z" fill="url(#paint0_linear_99_2275)"/>
</g>
<defs>
<linearGradient id="paint0_linear_99_2275" x1="1.90294" y1="4.38648" x2="24.5745" y2="5.94719" gradientUnits="userSpaceOnUse">
<stop stop-color="#F5166B"/>
<stop offset="1" stop-color="#ED6923"/>
</linearGradient>
</defs>
</svg>
