<svg width="25" height="26" viewBox="0 0 25 26" fill="none" xmlns="http://www.w3.org/2000/svg">
<g id="icon_viber">
<g id="Union">
<path d="M12.9009 5.51133C15.4748 6.16742 17.2764 7.75892 18.3058 10.2859C18.4218 10.552 18.5152 10.8263 18.586 11.1091C18.5015 11.5112 18.2746 11.621 17.9054 11.4384C17.078 8.77672 15.3698 7.0205 12.7808 6.16989C12.6111 5.91091 12.6511 5.69136 12.9009 5.51133Z" fill="url(#paint0_linear_99_882)"/>
<path fill-rule="evenodd" clip-rule="evenodd" d="M9.60909 6.23882C9.3517 5.98796 9.02498 5.87792 8.67526 5.91701L8.5081 5.9357L8.37761 6.04472C7.86655 6.47174 7.36403 6.91851 6.87012 7.38508L6.81804 7.43428L6.77925 7.49508C6.13361 8.507 6.07015 9.60288 6.58144 10.7029L6.59229 10.7263L6.60509 10.7485C8.52038 14.0785 11.2162 16.5089 14.6789 18.0274L14.7343 18.0517L14.7933 18.0635C15.4963 18.2046 16.1598 18.0606 16.7485 17.6406L16.8023 17.6022L16.8462 17.5523C17.3746 16.9515 17.8381 16.3017 18.2363 15.6035L18.2664 15.5507L18.2853 15.4926C18.3777 15.2077 18.3777 14.9131 18.2853 14.6282L18.2268 14.4479L18.0764 14.3373C17.2194 13.7067 16.3403 13.1088 15.4392 12.5437L15.3914 12.5137L15.3388 12.4939C14.8941 12.3261 14.4345 12.2819 13.9997 12.4455C13.7208 12.5503 13.4878 12.7272 13.2945 12.9523C13.0696 12.8552 12.8493 12.7456 12.6335 12.6236C12.0265 12.2148 11.593 11.6795 11.3251 11.0045C11.5097 10.8099 11.6555 10.586 11.751 10.3307C11.8991 9.93496 11.9081 9.51246 11.8147 9.0868L11.7879 8.96466L11.7148 8.86446C11.0622 7.96946 10.3707 7.10518 9.64039 6.27182L9.62537 6.25469L9.60909 6.23882ZM7.69523 8.19612C8.08195 7.83246 8.47383 7.48161 8.87082 7.14349C9.52069 7.88992 10.1385 8.66172 10.7242 9.45877C10.7509 9.6476 10.7316 9.79346 10.6879 9.91028C10.6357 10.0498 10.5305 10.1967 10.3294 10.3431L9.99472 10.5868L10.1134 10.9904C10.4409 12.1042 11.0843 12.987 12.0303 13.6173L12.0469 13.6283L12.0641 13.6381C12.4661 13.867 12.8826 14.0589 13.3131 14.2137L13.7607 14.3746L13.9958 13.9512C14.1393 13.6927 14.2786 13.5875 14.391 13.5452C14.4964 13.5056 14.6542 13.4926 14.8971 13.5755C15.6778 14.0667 16.4413 14.5831 17.188 15.1248C16.8561 15.6906 16.4761 16.2202 16.0476 16.7139C15.7424 16.9156 15.4242 16.9837 15.0671 16.9244C11.8638 15.5056 9.37883 13.2599 7.59886 10.1755C7.27682 9.46789 7.31119 8.83174 7.69523 8.19612Z" fill="url(#paint1_linear_99_882)"/>
<path d="M12.9806 7.40458C14.8183 7.76976 16.0594 8.86741 16.7039 10.6974C16.799 11.3144 16.5855 11.479 16.0634 11.1913C15.5186 9.60846 14.4777 8.5383 12.9405 7.98082C12.8843 7.78087 12.8975 7.58882 12.9806 7.40458Z" fill="url(#paint2_linear_99_882)"/>
<path d="M15.1031 11.1091C14.964 9.90935 14.31 9.19589 13.1413 8.96876C12.9407 9.10756 12.874 9.29961 12.9411 9.545C13.165 9.74142 13.4186 9.89231 13.7018 9.99777C14.0736 10.3509 14.3673 10.7625 14.5826 11.2326C14.7848 11.3063 14.9583 11.2652 15.1031 11.1091Z" fill="url(#paint3_linear_99_882)"/>
<path fill-rule="evenodd" clip-rule="evenodd" d="M10.6586 21.3581L15.2228 21.2757C18.9365 20.6133 21.1385 18.377 21.8288 14.5667C21.8822 12.7556 21.8822 10.9446 21.8288 9.13352C21.1127 5.40636 18.9373 3.19744 15.3029 2.50675C13.408 2.46559 11.5129 2.45188 9.61771 2.46559C6.04223 3.21913 3.89358 5.44178 3.17187 9.13352C3.11849 10.8622 3.11849 12.591 3.17187 14.3197C3.52342 17.3967 5.07151 19.5646 7.81608 20.823L7.89615 23.3749C7.96053 23.4823 8.05397 23.5372 8.1764 23.5396C8.25831 23.4796 8.33974 23.4189 8.42068 23.3575C8.62364 23.2037 8.82355 23.0455 9.0204 22.8831C9.59235 22.411 10.1385 21.9027 10.6586 21.3581ZM8.97358 21.3911C9.27232 21.1182 9.56309 20.8337 9.84589 20.5376L10.1725 20.1956L15.1126 20.1065C16.7486 19.801 17.9718 19.1697 18.8591 18.2686C19.7464 17.3674 20.3754 16.1175 20.6929 14.439C20.742 12.7152 20.742 10.9915 20.6931 9.26776C20.3646 7.63209 19.7373 6.40572 18.8597 5.51463C17.9819 4.62317 16.7805 3.99315 15.1843 3.67552C13.3697 3.63699 11.5549 3.62376 9.73993 3.63583C8.18071 3.9816 7.00022 4.6257 6.13257 5.52323C5.26175 6.42405 4.63832 7.65029 4.30736 9.27053C4.25829 10.9242 4.25878 12.5778 4.30882 14.2314C4.62375 16.8733 5.91804 18.6705 8.28005 19.7535L8.93159 20.0522L8.97358 21.3911Z" fill="url(#paint4_linear_99_882)"/>
</g>
</g>
<defs>
<linearGradient id="paint0_linear_99_882" x1="3.50379" y1="1.74184" x2="22.8049" y2="2.60493" gradientUnits="userSpaceOnUse">
<stop stop-color="#F5166B"/>
<stop offset="1" stop-color="#ED6923"/>
</linearGradient>
<linearGradient id="paint1_linear_99_882" x1="3.50379" y1="1.74184" x2="22.8049" y2="2.60493" gradientUnits="userSpaceOnUse">
<stop stop-color="#F5166B"/>
<stop offset="1" stop-color="#ED6923"/>
</linearGradient>
<linearGradient id="paint2_linear_99_882" x1="3.50379" y1="1.74184" x2="22.8049" y2="2.60493" gradientUnits="userSpaceOnUse">
<stop stop-color="#F5166B"/>
<stop offset="1" stop-color="#ED6923"/>
</linearGradient>
<linearGradient id="paint3_linear_99_882" x1="3.50379" y1="1.74184" x2="22.8049" y2="2.60493" gradientUnits="userSpaceOnUse">
<stop stop-color="#F5166B"/>
<stop offset="1" stop-color="#ED6923"/>
</linearGradient>
<linearGradient id="paint4_linear_99_882" x1="3.50379" y1="1.74184" x2="22.8049" y2="2.60493" gradientUnits="userSpaceOnUse">
<stop stop-color="#F5166B"/>
<stop offset="1" stop-color="#ED6923"/>
</linearGradient>
</defs>
</svg>
