<svg width="25" height="26" viewBox="0 0 25 26" fill="none" xmlns="http://www.w3.org/2000/svg">
<g id="icon_telegeram">
<path id="image 2 (Traced)" fill-rule="evenodd" clip-rule="evenodd" d="M12.1087 6.74722C7.07449 8.50324 2.86485 10.0094 2.75396 10.0942C2.64308 10.1791 2.47066 10.3753 2.3709 10.5302C2.25945 10.7032 2.18945 10.94 2.18945 11.1437C2.18945 11.326 2.26252 11.6267 2.35179 11.8117C2.45719 12.0299 2.62767 12.2093 2.83735 12.3223C3.01509 12.4181 4.10903 12.936 5.26822 13.4732C6.42748 14.0104 7.38642 14.4608 7.39909 14.4743C7.41183 14.4877 7.73473 16.0315 8.11666 17.905C8.66706 20.6047 8.84657 21.3511 8.98206 21.5035C9.08891 21.6237 9.24592 21.695 9.401 21.6937C9.59511 21.6921 10.0436 21.3782 11.4632 20.2505C13.004 19.0267 13.2956 18.8261 13.3986 18.9199C13.4654 18.9806 14.3497 19.7462 15.3638 20.6214C16.3778 21.4966 17.3183 22.2733 17.4537 22.3473C17.6168 22.4364 17.8286 22.4687 18.0811 22.4431C18.3056 22.4203 18.5547 22.3276 18.6872 22.2174C18.8109 22.1146 18.9605 21.9575 19.0195 21.8684C19.0787 21.7792 19.9636 17.955 20.9861 13.3701C22.3486 7.26114 22.8359 4.93921 22.8102 4.67944C22.791 4.48452 22.6985 4.2112 22.6048 4.07211C22.5111 3.93293 22.3102 3.75685 22.1586 3.68075C22.0068 3.60464 21.743 3.54515 21.5723 3.54847C21.3938 3.55197 17.3704 4.91194 12.1087 6.74722ZM21.5928 4.96998C21.5691 5.05205 20.7483 8.72295 19.7687 13.1277C18.7891 17.5323 17.9785 21.1458 17.9673 21.1577C17.9561 21.1696 16.5645 19.982 14.8748 18.5185C13.1852 17.0551 11.8032 15.8194 11.8038 15.7725C11.8044 15.7256 13.2069 14.1388 14.9205 12.2462C16.6341 10.3537 18.0802 8.72372 18.1341 8.62409C18.1879 8.52446 18.2333 8.38102 18.2349 8.30534C18.2364 8.22966 18.1625 8.06662 18.0705 7.94313C17.9531 7.78528 17.8278 7.71855 17.6489 7.71855C17.4654 7.71855 16.073 8.49386 12.6571 10.4979L7.91981 13.2772L5.64918 12.2273C4.40032 11.6499 3.42856 11.1592 3.4896 11.1367C3.55073 11.1143 7.62892 9.68773 12.5523 7.96673C17.4756 6.24566 21.5335 4.83378 21.5697 4.82918C21.606 4.82458 21.6163 4.8879 21.5928 4.96998ZM12.985 12.4985C12.2591 13.2993 11.345 14.3152 10.9538 14.7561L10.2424 15.5576L9.86044 16.9732L9.47842 18.3887L9.06318 16.3562C8.8348 15.2383 8.67359 14.3132 8.70496 14.3003C8.73633 14.2874 9.99584 13.55 11.5039 12.6616C13.0119 11.7731 14.2591 11.0454 14.2753 11.0444C14.2916 11.0433 13.711 11.6976 12.985 12.4985ZM11.9324 17.6595L12.2803 17.9884L11.3755 18.7023C10.8779 19.0948 10.4896 19.3633 10.5127 19.2989C10.5358 19.2344 10.6164 18.9515 10.6919 18.6702C10.7674 18.389 10.9012 17.8988 10.9892 17.581L11.1493 17.0029L11.367 17.1668C11.4866 17.2569 11.7411 17.4787 11.9324 17.6595Z" fill="url(#paint0_linear_99_880)"/>
</g>
<defs>
<linearGradient id="paint0_linear_99_880" x1="2.59882" y1="2.90391" x2="23.8201" y2="4.06852" gradientUnits="userSpaceOnUse">
<stop stop-color="#F5166B"/>
<stop offset="1" stop-color="#ED6923"/>
</linearGradient>
</defs>
</svg>
