<svg width="25" height="26" viewBox="0 0 25 26" fill="none" xmlns="http://www.w3.org/2000/svg">
<g id="icon_whatsup">
<path id="image 3 (Traced)" fill-rule="evenodd" clip-rule="evenodd" d="M10.9227 3.01782C10.5975 3.07354 10.1008 3.17954 9.81889 3.25326C9.53701 3.32706 9.00479 3.5119 8.63618 3.66399C8.26757 3.81608 7.6871 4.10598 7.34616 4.30827C7.00531 4.51056 6.43761 4.91521 6.08461 5.20748C5.73169 5.49974 5.21855 5.99698 4.9444 6.31245C4.67025 6.62792 4.29312 7.11797 4.10641 7.40156C3.9197 7.68514 3.6364 8.17669 3.47674 8.4939C3.31715 8.8111 3.06413 9.43715 2.91432 9.88513C2.76459 10.333 2.58947 11.0491 2.52513 11.4763C2.46079 11.9034 2.4082 12.5904 2.4082 13.0028C2.4082 13.4152 2.45945 14.093 2.52214 14.509C2.58474 14.9251 2.74819 15.6176 2.88523 16.0481C3.02234 16.4786 3.27765 17.1197 3.45261 17.4729L3.77068 18.115L3.24666 20.0623C2.95848 21.1334 2.72265 22.108 2.72265 22.2281C2.72265 22.3543 2.79968 22.5189 2.9051 22.6181C3.00547 22.7125 3.18083 22.7897 3.29476 22.7897C3.40862 22.7897 4.37638 22.5539 5.44524 22.2657L7.38866 21.7417L8.03213 22.0588C8.38608 22.2332 8.95945 22.4694 9.30638 22.5837C9.65331 22.698 10.1855 22.8458 10.4891 22.9122C10.7926 22.9786 11.5378 23.0528 12.1449 23.0772C12.9723 23.1105 13.4462 23.0891 14.037 22.9918C14.4706 22.9205 15.1859 22.7413 15.6266 22.5936C16.0673 22.446 16.6872 22.1946 17.0041 22.0348C17.321 21.875 17.812 21.5914 18.0953 21.4045C18.3786 21.2176 18.8682 20.8401 19.1833 20.5657C19.4985 20.2913 19.9952 19.7776 20.2872 19.4243C20.5792 19.071 20.9834 18.5027 21.1855 18.1615C21.3876 17.8202 21.6773 17.2392 21.8294 16.8702C21.9815 16.5012 22.1771 15.9152 22.2639 15.5679C22.3508 15.2206 22.4601 14.6811 22.507 14.3689C22.5538 14.0567 22.5921 13.442 22.5921 13.0028C22.5921 12.5637 22.5538 11.9489 22.507 11.6367C22.4601 11.3245 22.3508 10.785 22.2639 10.4377C22.1771 10.0904 21.9815 9.50439 21.8294 9.13541C21.6773 8.76643 21.3876 8.18537 21.1855 7.84417C20.9834 7.50298 20.5586 6.91032 20.2415 6.52713C19.9243 6.14402 19.3516 5.57078 18.9689 5.25326C18.5861 4.93581 17.994 4.51056 17.6531 4.30827C17.3123 4.10598 16.7318 3.81593 16.3632 3.66368C15.9946 3.51143 15.4091 3.31569 15.0622 3.22879C14.7153 3.14182 14.1763 3.03234 13.8644 2.98546C13.5525 2.93858 12.8961 2.90385 12.4057 2.90835C11.9154 2.91277 11.248 2.96202 10.9227 3.01782ZM14.0107 4.27899C14.3761 4.34284 14.9574 4.48941 15.3023 4.6048C15.6473 4.72027 16.1779 4.93929 16.4815 5.09154C16.785 5.24378 17.2435 5.51111 17.5004 5.68554C17.7572 5.86004 18.2476 6.2707 18.59 6.59816C18.9324 6.92571 19.3877 7.42634 19.6018 7.71071C19.8158 7.99508 20.1464 8.52965 20.3364 8.89863C20.5264 9.26761 20.7757 9.85206 20.8904 10.1974C21.005 10.5427 21.151 11.1245 21.2147 11.4903C21.2785 11.856 21.3306 12.5367 21.3306 13.0028C21.3306 13.4689 21.2785 14.1496 21.2147 14.5154C21.151 14.8811 21.0045 15.4629 20.8893 15.8082C20.7739 16.1536 20.5551 16.6847 20.403 16.9886C20.2509 17.2925 19.985 17.7498 19.812 18.0049C19.6391 18.26 19.2447 18.7365 18.9357 19.0636C18.6267 19.3908 18.09 19.8713 17.743 20.1313C17.3961 20.3913 16.7574 20.7747 16.3238 20.9832C15.8901 21.1917 15.1805 21.4609 14.7468 21.5814C14.0143 21.785 13.8548 21.8004 12.4997 21.7992C11.1615 21.7979 10.9759 21.7801 10.2525 21.5835C9.79933 21.4603 9.05423 21.1664 8.50017 20.8922L7.53626 20.4153L5.90302 20.8509C5.00472 21.0906 4.25953 21.2763 4.247 21.2638C4.23454 21.2513 4.42007 20.5053 4.65945 19.6061L5.0946 17.9712L4.61821 17.0064C4.34429 16.4517 4.05067 15.7059 3.92767 15.2522C3.73126 14.5281 3.71344 14.3423 3.71218 13.0028C3.71092 11.6464 3.72637 11.4866 3.92972 10.7534C4.05012 10.3193 4.31898 9.60897 4.5273 9.17487C4.73561 8.74078 5.11857 8.10147 5.37837 7.7542C5.6381 7.40692 6.11812 6.86967 6.44494 6.56036C6.77176 6.25097 7.24776 5.85625 7.50259 5.68309C7.75743 5.51 8.21435 5.24355 8.51791 5.09106C8.82147 4.9385 9.36 4.71758 9.71465 4.60022C10.0694 4.48278 10.6193 4.3396 10.9368 4.28199C11.2543 4.22437 11.9264 4.17409 12.4302 4.17015C12.9341 4.16628 13.6453 4.21522 14.0107 4.27899ZM8.66654 7.78987C8.44474 7.91726 8.11815 8.1864 7.94091 8.38806C7.76358 8.58963 7.54265 8.91158 7.44992 9.10337C7.35712 9.29516 7.23175 9.63833 7.1712 9.86595C7.11065 10.0936 7.06066 10.6205 7.06018 11.0367C7.05955 11.5327 7.11325 12.0089 7.21591 12.418C7.30209 12.7614 7.54754 13.3974 7.76145 13.8315C7.97528 14.2656 8.32513 14.8517 8.53873 15.1338C8.75232 15.416 9.17597 15.8902 9.48008 16.1876C9.78427 16.4851 10.2599 16.8876 10.537 17.0823C10.8143 17.2768 11.28 17.5575 11.5721 17.706C11.8643 17.8546 12.3787 18.068 12.7154 18.1804C13.1662 18.3308 13.5585 18.3959 14.2036 18.4272C14.7768 18.455 15.2265 18.4354 15.5046 18.3703C15.7383 18.3156 16.1114 18.1861 16.3336 18.0825C16.5557 17.979 16.9037 17.7478 17.1068 17.5689C17.3099 17.3899 17.5801 17.0618 17.7074 16.8398C17.879 16.5403 17.9389 16.3331 17.9394 16.0372C17.94 15.7321 17.8872 15.5558 17.715 15.2874C17.5911 15.0944 17.2388 14.6959 16.9322 14.4019C16.6254 14.1078 16.2099 13.7943 16.0088 13.7052C15.7397 13.586 15.5615 13.557 15.3347 13.5953C15.1652 13.624 14.9104 13.7256 14.7684 13.8211C14.6264 13.9167 14.3897 14.1576 14.2423 14.3565L13.9743 14.718L13.5376 14.6039C13.2975 14.5412 12.8994 14.3879 12.6529 14.2633C12.4065 14.1389 12.0387 13.8707 11.8357 13.6674C11.6327 13.4642 11.3648 13.0961 11.2404 12.8495C11.116 12.6027 10.9629 12.2042 10.9002 11.9638L10.7862 11.5267L11.1474 11.2585C11.3461 11.1109 11.5867 10.8739 11.6822 10.7319C11.7776 10.5897 11.8791 10.3346 11.9078 10.1649C11.946 9.93794 11.9171 9.75956 11.798 9.49019C11.709 9.28884 11.3958 8.8729 11.102 8.56588C10.8083 8.25893 10.4102 7.90629 10.2174 7.7823C9.9493 7.60992 9.77316 7.55704 9.46833 7.55759C9.17273 7.55815 8.96576 7.61813 8.66654 7.78987ZM10.6862 10.0118C10.6862 10.04 10.4389 10.2438 10.1365 10.4646C9.77481 10.7288 9.5687 10.9382 9.53393 11.0768C9.50492 11.1926 9.54182 11.5701 9.61601 11.9156C9.69021 12.2611 9.84396 12.7626 9.95766 13.0298C10.0714 13.2971 10.296 13.7112 10.4568 13.9499C10.6176 14.1887 10.8681 14.4943 11.0133 14.6291C11.1587 14.7639 11.4372 14.9792 11.6324 15.1075C11.8275 15.236 12.2057 15.434 12.4727 15.5477C12.7397 15.6614 13.2406 15.8151 13.5858 15.8894C13.9309 15.9637 14.308 16.0006 14.4238 15.9715C14.5623 15.9367 14.7714 15.7304 15.0353 15.3684C15.2559 15.0657 15.4578 14.8181 15.484 14.8181C15.5102 14.8181 15.7897 15.0747 16.1051 15.3884C16.4205 15.702 16.6786 16.0094 16.6786 16.0715C16.6786 16.1336 16.5941 16.2952 16.4909 16.4307C16.3877 16.5661 16.1268 16.7731 15.911 16.8906C15.6885 17.0119 15.2928 17.1364 14.9966 17.1784C14.6621 17.2258 14.2704 17.2241 13.9064 17.1736C13.5939 17.1303 13.1052 17.0071 12.8204 16.8998C12.5356 16.7925 12.1074 16.5949 11.8689 16.4606C11.6304 16.3262 11.2401 16.0648 11.0016 15.8795C10.7631 15.6943 10.3876 15.353 10.1673 15.1212C9.94693 14.8894 9.65898 14.5577 9.52731 14.384C9.39571 14.2104 9.17857 13.873 9.04469 13.6342C8.91088 13.3955 8.71377 12.9669 8.60661 12.6818C8.49946 12.3967 8.37638 11.9075 8.33309 11.5947C8.28263 11.2303 8.28089 10.8382 8.32828 10.5034C8.37047 10.2053 8.49489 9.81023 8.61773 9.58387C8.73632 9.36564 8.97325 9.08545 9.14435 8.9613L9.4554 8.73565L10.0708 9.34804C10.4093 9.68482 10.6862 9.98356 10.6862 10.0118Z" fill="url(#paint0_linear_99_2273)"/>
</g>
<defs>
<linearGradient id="paint0_linear_99_2273" x1="2.80888" y1="2.21987" x2="23.5895" y2="3.26527" gradientUnits="userSpaceOnUse">
<stop stop-color="#F5166B"/>
<stop offset="1" stop-color="#ED6923"/>
</linearGradient>
</defs>
</svg>
