<svg width="60" height="60" viewBox="0 0 60 60" fill="none" xmlns="http://www.w3.org/2000/svg">
<g id="icon" clip-path="url(#clip0_16_16156)">
<g id="Group 143">
<path id="Vector" fill-rule="evenodd" clip-rule="evenodd" d="M42.5996 18.3C43.6996 19.1 43.9996 20.6 43.2996 21.8L30.1996 41.1C29.7996 41.7 29.0996 42.1 28.3996 42.2C27.6996 42.3 26.8996 42 26.3996 41.5L17.0996 32.2C16.0996 31.2 16.0996 29.6 17.0996 28.7C18.0996 27.7 19.6996 27.7 20.5996 28.7L27.6996 35.8L39.0996 19C39.8996 17.8 41.4996 17.5 42.5996 18.3Z" fill="url(#paint0_linear_16_16156)"/>
<path id="Vector_2" d="M30 60C13.5 60 0 46.5 0 30C0 13.5 13.5 0 30 0C46.5 0 60 13.5 60 30C60 46.5 46.6 60 30 60ZM30 2C14.6 2 2 14.6 2 30C2 45.4 14.6 58 30 58C45.4 58 58 45.4 58 30C58 14.6 45.5 2 30 2Z" fill="url(#paint1_linear_16_16156)"/>
</g>
</g>
<defs>
<linearGradient id="paint0_linear_16_16156" x1="16.2398" y1="28.9576" x2="44.3561" y2="30.5472" gradientUnits="userSpaceOnUse">
<stop stop-color="#F5166B"/>
<stop offset="1" stop-color="#ED6923"/>
</linearGradient>
<linearGradient id="paint1_linear_16_16156" x1="-0.3079" y1="28.4735" x2="61.4656" y2="31.5811" gradientUnits="userSpaceOnUse">
<stop stop-color="#F5166B"/>
<stop offset="1" stop-color="#ED6923"/>
</linearGradient>
<clipPath id="clip0_16_16156">
<rect width="60" height="60" fill="white"/>
</clipPath>
</defs>
</svg>
